<svg width="29" height="29" viewBox="0 0 29 29" fill="none" xmlns="http://www.w3.org/2000/svg">
<path d="M14.5 9.66699C14.5 9.66699 14.5 9.66699 13.5817 8.45866C12.5183 7.05699 10.9475 6.04199 9.0625 6.04199C6.05375 6.04199 3.625 8.47074 3.625 11.4795C3.625 12.6032 3.96333 13.6424 4.54333 14.5003C5.52208 15.9624 14.5 25.3753 14.5 25.3753M14.5 9.66699C14.5 9.66699 14.5 9.66699 15.4183 8.45866C16.4817 7.05699 18.0525 6.04199 19.9375 6.04199C22.9463 6.04199 25.375 8.47074 25.375 11.4795C25.375 12.6032 25.0367 13.6424 24.4567 14.5003C23.4779 15.9624 14.5 25.3753 14.5 25.3753" stroke="#90DCD0" stroke-width="2" stroke-linecap="round" stroke-linejoin="round"/>
</svg>
