<?xml version="1.0" encoding="UTF-8"?>
<svg version="1.1" xmlns="http://www.w3.org/2000/svg" width="1959" height="1516">
<path d="M0 0 C2.82328165 1.02150962 4.30915689 2.17458954 6.4609375 4.25610352 C7.53988281 5.28670898 7.53988281 5.28670898 8.640625 6.33813477 C9.37796875 7.06129883 10.1153125 7.78446289 10.875 8.52954102 C11.96941406 9.57948242 11.96941406 9.57948242 13.0859375 10.65063477 C15.23768992 12.72169647 17.37149596 14.80961592 19.5 16.90454102 C20.14179199 17.53166992 20.78358398 18.15879883 21.44482422 18.80493164 C24.79837845 22.11082205 27.92760643 25.47312223 30.875 29.15454102 C33.10759132 31.93680912 35.33521895 34.71164849 37.65234375 37.42407227 C49.14951143 50.9587127 58.30642028 66.19660789 66.5 81.90454102 C67.10642334 83.04439453 67.10642334 83.04439453 67.72509766 84.20727539 C79.87155536 107.25810356 88.22142147 133.22848403 92.5 158.90454102 C92.73904053 160.26748291 92.73904053 160.26748291 92.98291016 161.65795898 C97.7814933 190.04916408 97.20502531 220.54091324 92.5 248.90454102 C93.07322998 249.05294434 93.64645996 249.20134766 94.23706055 249.35424805 C101.64832961 251.41044347 108.40405176 254.42654685 115.3125 257.77954102 C117.08004639 258.6357605 117.08004639 258.6357605 118.88330078 259.50927734 C134.84645268 267.33831076 149.73992456 276.64285616 163.5 287.90454102 C164.42683594 288.6405957 165.35367187 289.37665039 166.30859375 290.13500977 C181.04886258 301.94813301 194.86308022 315.004062 206.5 329.90454102 C206.98726562 330.51539551 207.47453125 331.12625 207.9765625 331.75561523 C216.39223744 342.30889233 223.85827485 353.15129209 230.5 364.90454102 C230.98855469 365.76789063 231.47710938 366.63124023 231.98046875 367.52075195 C245.80835647 392.27053814 261.5 424.91344144 261.5 453.90454102 C188.59894296 477.20500355 114.51191911 474.60471798 45.5 439.90454102 C29.50034126 431.51494242 14.34362298 421.51854202 0.5 409.90454102 C-2.3431943 411.23429561 -4.73358968 412.73776422 -7.203125 414.67016602 C-64.36742411 458.57239886 -136.1947856 476.60866121 -207.43896484 467.5300293 C-226.18002184 464.88479884 -244.61124098 460.04796661 -262.5 453.90454102 C-257.74468652 408.04582826 -234.86281575 362.86804199 -205.5 327.90454102 C-205.06751953 327.38327637 -204.63503906 326.86201172 -204.18945312 326.32495117 C-194.73374678 314.94632513 -184.8839075 304.32321053 -173.265625 295.11157227 C-170.36514495 292.79692364 -167.56388844 290.38593175 -164.75 287.96704102 C-149.00279276 274.88133359 -130.72204264 264.66866041 -112.3125 255.84204102 C-111.20116699 255.3053479 -111.20116699 255.3053479 -110.06738281 254.7578125 C-104.68925937 252.24943155 -99.21651535 250.4810238 -93.5 248.90454102 C-93.59087891 248.26991943 -93.68175781 247.63529785 -93.77539062 246.98144531 C-103.89682985 173.82809452 -86.76794234 101.85200417 -42.47021484 42.38183594 C-38.27283817 36.87015464 -33.74441388 31.69795895 -29.01953125 26.63500977 C-27.04348656 24.49352878 -25.13614767 22.32467972 -23.23828125 20.11547852 C-19.32642669 15.63339816 -15.16449705 11.46101919 -10.875 7.34204102 C-10.13765625 6.60663086 -9.4003125 5.8712207 -8.640625 5.11352539 C-7.92132812 4.42452148 -7.20203125 3.73551758 -6.4609375 3.02563477 C-5.81946777 2.40100342 -5.17799805 1.77637207 -4.51708984 1.1328125 C-2.5 -0.09545898 -2.5 -0.09545898 0 0 Z M-60.1171875 261.72094727 C-61.31770752 261.99080444 -61.31770752 261.99080444 -62.54248047 262.26611328 C-64.70551594 262.80805286 -64.70551594 262.80805286 -66.5 264.90454102 C-53.97929627 304.26095777 -37.173172 338.11147911 -9.1875 368.96704102 C-8.68347656 369.52810547 -8.17945313 370.08916992 -7.66015625 370.66723633 C-5.15605655 373.38391669 -2.98736067 375.57089478 0.5 376.90454102 C8.02270161 369.61095722 15.10398313 362.2314309 21.5 353.90454102 C22.14751221 353.06366943 22.14751221 353.06366943 22.80810547 352.20581055 C29.73445602 343.15508411 35.91853911 333.8388243 41.5 323.90454102 C41.9007373 323.1987793 42.30147461 322.49301758 42.71435547 321.76586914 C58.52232657 294.22805645 58.52232657 294.22805645 65.5 263.90454102 C56.87496471 261.04977581 48.26094927 259.20383472 39.3125 257.71704102 C38.31605469 257.55042969 37.31960938 257.38381836 36.29296875 257.2121582 C24.29363804 255.28482507 12.44762082 254.66447555 0.3125 254.65454102 C-0.43399811 254.65386627 -1.18049622 254.65319153 -1.94961548 254.65249634 C-21.79671831 254.68079833 -40.75903457 257.36351357 -60.1171875 261.72094727 Z " fill="#030304" transform="translate(979.5,0.095458984375)"/>
<path d="M0 0 C26.67077342 -0.07037606 53.34153272 -0.12312731 80.0123806 -0.15543652 C92.39874773 -0.17084328 104.78505685 -0.19181302 117.17138672 -0.22631836 C127.9792064 -0.25641175 138.78698404 -0.27561986 149.59484446 -0.28226548 C155.30670487 -0.28614429 161.01844506 -0.29512761 166.73026657 -0.31719017 C197.58824091 -0.43160964 226.89950221 0.45327232 257 8 C257.76070801 8.18788086 258.52141602 8.37576172 259.30517578 8.56933594 C289.21210892 16.12860131 316.96678469 31.47769983 339 53 C339.84820312 53.78632812 340.69640625 54.57265625 341.5703125 55.3828125 C372.64643676 84.90025968 386.98028153 130.27165994 388.91015625 172.1640625 C388.95462891 174.06285156 388.95462891 174.06285156 389 176 C389.02046387 176.79374023 389.04092773 177.58748047 389.06201172 178.40527344 C389.71052267 207.1434198 386.56607237 236.08050129 376 263 C375.71286133 263.73234863 375.42572266 264.46469727 375.12988281 265.21923828 C368.56070406 281.60667608 359.77003668 296.79818784 348 310 C347.24847656 310.85980469 346.49695313 311.71960938 345.72265625 312.60546875 C343.51354307 315.10157783 341.26680725 317.55629128 339 320 C338.42378906 320.64195312 337.84757812 321.28390625 337.25390625 321.9453125 C305.83420741 355.39434601 255.82896854 372.49947623 211 375 C204.0916067 375.18075571 197.17865422 375.12671968 190.26855469 375.11352539 C188.18799338 375.11324291 186.10743198 375.11340244 184.02687073 375.1139679 C178.40998304 375.11425349 172.79311694 375.10839532 167.17623425 375.10139394 C161.2945943 375.09512068 155.41295381 375.09455347 149.53131104 375.09336853 C138.4075506 375.0902669 127.28380005 375.0820693 116.16004395 375.07201904 C103.49011689 375.06082157 90.82018933 375.05533831 78.15025854 375.05032361 C52.10016689 375.03988567 26.050084 375.02230892 0 375 C2.56471566 372.43528434 5.05893589 371.69978198 8.4375 370.375 C23.48259417 364.17494961 34.95404905 353.67224455 42 339 C47.29464757 325.5857959 46.55923152 311.63259605 46.50170898 297.44287109 C46.50549735 294.77211183 46.51085046 292.10139675 46.51808167 289.4306488 C46.53193397 282.96121668 46.52451815 276.49198124 46.50940608 270.02255867 C46.49245035 262.47340619 46.49576815 254.9243014 46.49950016 247.37513573 C46.50536386 233.89816298 46.49126485 220.42128398 46.46655273 206.94433594 C46.44262681 193.89449553 46.43555412 180.84478029 46.44604492 167.79492188 C46.45747639 153.54962584 46.45935746 139.30438753 46.44494683 125.05909216 C46.44342114 123.53773284 46.44190078 122.01637352 46.44038582 120.49501419 C46.439628 119.74666616 46.43887019 118.99831813 46.43808941 118.22729289 C46.43336453 112.97635272 46.43518514 107.7254385 46.43945122 102.47449875 C46.44439812 96.06910657 46.43830364 89.66383226 46.41855692 83.25846694 C46.40874406 79.99600644 46.40514392 76.73375949 46.41144943 73.47128487 C46.44793231 51.88116343 45.39018517 33.79652186 29.63671875 17.34765625 C20.90292137 9.57134184 11.05713927 4.65510086 0 1 C0 0.67 0 0.34 0 0 Z M104 11 C104 127.49 104 243.98 104 364 C163.1406446 367.22416909 163.1406446 367.22416909 230.4375 359.9375 C231.20843994 359.72834961 231.97937988 359.51919922 232.77368164 359.30371094 C246.93562387 355.2071038 259.77043835 348.53926995 271 339 C271.83402344 338.32710937 272.66804687 337.65421875 273.52734375 336.9609375 C307.31052829 308.46137898 318.32522883 260.85228234 322.25 218.8125 C326.59026669 165.18307971 323.17816048 101.24493413 286.77734375 58.3828125 C284.55957811 55.87974254 282.29433034 53.4328867 280 51 C279.38769531 50.32324219 278.77539062 49.64648438 278.14453125 48.94921875 C252.60311983 21.77402835 214.13483452 15.05401937 179 11 C154.25 11 129.5 11 104 11 Z " fill="#030304" transform="translate(9,682)"/>
<path d="M0 0 C102.63 0 205.26 0 311 0 C311 29.7 311 59.4 311 90 C308.34457106 88.67228553 308.07874009 87.38239949 306.86328125 84.6953125 C306.45456787 83.80706787 306.04585449 82.91882324 305.62475586 82.00366211 C305.19171143 81.05370361 304.75866699 80.10374512 304.3125 79.125 C300.6918473 71.36868517 296.99650964 63.97960326 292 57 C291.32582031 56.04351563 290.65164063 55.08703125 289.95703125 54.1015625 C279.16137333 39.23603708 267.2429047 26.67360712 250.5625 18.5625 C249.91974121 18.24442383 249.27698242 17.92634766 248.61474609 17.59863281 C233.05120486 10.48846325 216.21679573 11.52583784 199.5078125 11.48828125 C197.05980578 11.47279139 194.611807 11.45599033 192.16381836 11.43786621 C183.15096629 11.38023423 174.13796698 11.34785619 165.125 11.3125 C144.95375 11.209375 124.7825 11.10625 104 11 C104 67.1 104 123.2 104 181 C157.51853892 180.07049892 157.51853892 180.07049892 201 155 C201.84046875 154.30261719 202.6809375 153.60523438 203.546875 152.88671875 C209.10988382 148.16161654 213.52798307 143.06072623 217.77758789 137.16503906 C218.81010186 135.74546462 219.90034553 134.36822393 221 133 C221.66 133 222.32 133 223 133 C223 166.99 223 200.98 223 236 C222.34 236 221.68 236 221 236 C219.77393383 234.41933626 218.62021335 232.78236483 217.5 231.125 C203.84455907 211.94822555 183.70950464 200.13051856 161 195 C142.19494595 192.10691476 123.02138568 192.43230422 104 192 C104 248.76 104 305.52 104 364 C133.514375 363.814375 133.514375 363.814375 163.625 363.625 C169.81459473 363.59100098 176.00418945 363.55700195 182.38134766 363.52197266 C187.97881497 363.48201844 187.97881497 363.48201844 193.57626343 363.43954468 C196.04979254 363.42197655 198.52334986 363.40812079 200.99691772 363.39730835 C235.46273399 363.23982587 262.58782228 357.56276483 288.125 333.3125 C302.38021014 318.52503363 311.57223897 300.51417715 320 282 C320.33 282 320.66 282 321 282 C321 312.69 321 343.38 321 375 C215.07 375 109.14 375 0 375 C1.46119397 372.07761205 3.41994727 371.90320487 6.4375 370.75 C23.59137804 363.77869649 34.5488466 353.3713356 42.17578125 336.4609375 C44.7381436 328.81028213 45.28989976 321.55279526 45.26069641 313.52043152 C45.26452196 312.39414803 45.26834751 311.26786455 45.27228898 310.10745126 C45.28257333 306.34917401 45.27863545 302.59105085 45.2746582 298.83276367 C45.27900722 296.13172401 45.2841269 293.43069549 45.29014587 290.72966003 C45.30286805 284.1635457 45.30468964 277.5974723 45.30234561 271.03134771 C45.30055937 265.69127159 45.30231865 260.35120784 45.30657005 255.01113319 C45.30716524 254.24981758 45.30776043 253.48850196 45.30837366 252.70411617 C45.30958547 251.15726675 45.3107996 249.61041733 45.31201603 248.06356791 C45.32288219 233.57037882 45.32073357 219.07721302 45.31463119 204.58402262 C45.30946388 191.34275948 45.32071421 178.10156995 45.33972941 164.86032137 C45.35913019 151.24558213 45.36735982 137.63087768 45.36360615 124.01612455 C45.36169738 116.3799744 45.36414999 108.74388687 45.37832069 101.10774803 C45.39026413 94.60631058 45.39160638 88.1049743 45.37953053 81.60353538 C45.37366221 78.29056728 45.37412812 74.97793468 45.38453293 71.66495514 C45.39502595 68.06330703 45.38687857 64.46215025 45.3742218 60.86051941 C45.38528323 59.31130658 45.38528323 59.31130658 45.39656812 57.73079652 C45.28188394 42.13900521 40.06146191 29.55589671 29.33984375 18.28125 C20.73061044 9.88760684 11.1080478 5.38150774 0 1 C0 0.67 0 0.34 0 0 Z " fill="#030304" transform="translate(1628,682)"/>
<path d="M0 0 C10.94408694 -0.20888032 21.88769691 -0.36862043 32.83337402 -0.46630955 C37.91648959 -0.51320581 42.99823781 -0.57677048 48.08056641 -0.67895508 C52.98901722 -0.77702179 57.89615637 -0.83061451 62.80551147 -0.85389519 C64.67471971 -0.87047652 66.54385912 -0.90285892 68.4125061 -0.95157051 C83.03003535 -1.31733042 83.03003535 -1.31733042 87.84594727 1.90310669 C89.89293939 4.17272648 91.43190153 6.38450994 93 9 C94.21084431 10.53546109 95.43825573 12.05811525 96.6875 13.5625 C97.34105469 14.38878906 97.99460937 15.21507812 98.66796875 16.06640625 C101.58365653 19.7342145 104.54126739 23.36689074 107.5 27 C111.64243606 32.090655 115.76495138 37.19560215 119.85546875 42.328125 C122.09863729 45.12289236 124.3605123 47.90175056 126.62475586 50.67944336 C131.28156094 56.39250049 135.90604251 62.1244097 140.4375 67.9375 C145.65565522 74.62400871 151.04557989 81.16232084 156.44921875 87.69921875 C163.88402236 96.69453866 171.25853258 105.7363624 178.4375 114.9375 C183.65597876 121.6237655 189.04557077 128.16230981 194.44921875 134.69921875 C201.88402236 143.69453866 209.25853258 152.7363624 216.4375 161.9375 C221.65597876 168.6237655 227.04557077 175.16230981 232.44921875 181.69921875 C239.88402236 190.69453866 247.25853258 199.7363624 254.4375 208.9375 C259.65198584 215.61864949 265.0370417 222.15246302 270.4375 228.68359375 C277.98802456 237.81815889 285.44217544 247.03198114 292.83203125 256.296875 C295.76957429 259.95954128 298.72753657 263.60544168 301.6875 267.25 C302.23470703 267.92417969 302.78191406 268.59835937 303.34570312 269.29296875 C303.87486328 269.94394531 304.40402344 270.59492187 304.94921875 271.265625 C305.41674561 271.84086914 305.88427246 272.41611328 306.3659668 273.00878906 C307.77059618 274.72045158 309.18407923 276.42391582 310.60212708 278.12445068 C311.39342514 279.07338196 312.18472321 280.02231323 313 281 C313.06853418 252.04805547 313.12157868 223.09611891 313.15319599 194.14410939 C313.15694781 190.72099141 313.16083081 187.2978736 313.16479492 183.87475586 C313.16558185 183.19331511 313.16636878 182.51187437 313.16717956 181.8097839 C313.18021026 170.79634681 313.20385113 159.78295701 313.23145839 148.76954792 C313.25957778 137.45693175 313.27596568 126.1443505 313.28226548 114.83169717 C313.28616914 108.48253667 313.29531463 102.1334832 313.31719017 95.78435707 C313.3376352 89.80164187 313.34381759 83.81907724 313.33932304 77.83633041 C313.34014466 75.64709211 313.34606225 73.45784849 313.35761642 71.26864052 C313.46027231 50.80488739 311.43243437 33.83862871 296.56640625 18.34375 C287.69456048 10.24160774 278.09878077 5.24316206 267 1 C267 0.67 267 0.34 267 0 C301.65 0 336.3 0 372 0 C369.50395244 2.49604756 367.33367298 3.03565309 364 4.1875 C357.52719031 6.61658973 352.40479493 9.73356011 347 14 C346.04673828 14.70769531 346.04673828 14.70769531 345.07421875 15.4296875 C333.39094171 24.6001533 328.55290385 38.16555103 326.42698026 52.39643133 C325.74407858 58.15989009 325.71220524 63.87587349 325.7215271 69.67378235 C325.7128385 71.64442344 325.7128385 71.64442344 325.70397437 73.65487546 C325.68832658 77.26262202 325.68475219 80.87029041 325.68332577 84.4780668 C325.6796048 88.38314572 325.66443619 92.28818306 325.65071106 96.1932373 C325.62851847 102.9461504 325.61345727 109.69904855 325.60334396 116.45199013 C325.58871165 126.21540944 325.56316226 135.97877664 325.53501268 145.74216523 C325.4896271 161.5855019 325.45297839 177.42884612 325.421875 193.2722168 C325.39165564 208.65569379 325.35728988 224.03915238 325.31738281 239.42260742 C325.31492126 240.37204361 325.31245972 241.32147979 325.30992357 242.29968677 C325.29754832 247.06308743 325.28509191 251.82648787 325.27259517 256.58988822 C325.16915076 296.05989993 325.07990695 335.52993402 325 375 C322.92021841 375.09821295 320.83909761 375.16834273 318.7578125 375.2265625 C317.59910645 375.26861816 316.44040039 375.31067383 315.24658203 375.35400391 C311.49138786 374.94454146 310.35974533 374.13935685 307.875 371.375 C306.55241084 369.60603699 305.26363816 367.81154377 304 366 C302.75186169 364.40382313 301.50308246 362.80809294 300.24194336 361.22216797 C298.8383926 359.45387952 297.45222547 357.67283258 296.06640625 355.890625 C292.72077987 351.61718296 289.27165728 347.43171834 285.8125 343.25 C281.53939675 338.08336227 277.29322625 332.9011556 273.12109375 327.65234375 C270.26804033 324.08471342 267.38349326 320.54304387 264.5 317 C260.3618521 311.9142473 256.24370363 306.81413676 252.15625 301.6875 C249.28723143 298.11162179 246.39344878 294.55612073 243.5 291 C239.3619176 285.91419351 235.24370421 280.81413749 231.15625 275.6875 C228.28723143 272.11162179 225.39344878 268.55612073 222.5 265 C218.3619176 259.91419351 214.24370421 254.81413749 210.15625 249.6875 C207.28723143 246.11162179 204.39344878 242.55612073 201.5 239 C197.3619176 233.91419351 193.24370421 228.81413749 189.15625 223.6875 C186.28723143 220.11162179 183.39344878 216.55612073 180.5 213 C176.35780888 207.9091438 172.23505086 202.80440066 168.14453125 197.671875 C165.90136271 194.87710764 163.6394877 192.09824944 161.37524414 189.32055664 C156.71843906 183.60749951 152.09395749 177.8755903 147.5625 172.0625 C142.34833748 165.38110752 136.96294914 158.8475259 131.5625 152.31640625 C124.00785683 143.17685845 116.5483205 133.95891046 109.15625 124.6875 C106.28723143 121.11162179 103.39344878 117.55612073 100.5 114 C96.3619176 108.91419351 92.24370421 103.81413749 88.15625 98.6875 C84.72375733 94.40932074 81.25700756 90.15902619 77.79492188 85.90478516 C74.09855736 81.3599861 70.42468619 76.79835488 66.78125 72.2109375 C65.33289289 70.413196 63.86788856 68.63403411 62.38867188 66.86181641 C61.2062793 65.44521729 61.2062793 65.44521729 60 64 C59.90834442 97.15594688 59.83791057 130.31186077 59.79573868 163.46790553 C59.79073616 167.38672564 59.78555884 171.3055455 59.78027344 175.22436523 C59.77869957 176.39456179 59.77869957 176.39456179 59.77709392 177.58839867 C59.75971241 190.20231486 59.72818723 202.81615776 59.69138882 215.43003055 C59.6539165 228.3834209 59.63175088 241.33677299 59.62364602 254.29021531 C59.61817125 262.27626436 59.60091126 270.2621062 59.56833413 278.24809144 C59.54459087 284.38290716 59.54219598 290.51756656 59.54756927 296.65242195 C59.54647234 299.1609512 59.53856271 301.66948858 59.5231781 304.17797089 C59.24727167 322.00099199 59.24727167 322.00099199 64 339 C64.37799618 339.91415271 64.75599236 340.82830542 65.14544296 341.77015972 C72.34127511 358.46288791 87.86284253 366.68469542 103.88671875 373.16796875 C104.58410156 373.44253906 105.28148437 373.71710938 106 374 C106 374.33 106 374.66 106 375 C71.02 375 36.04 375 0 375 C2.56471566 372.43528434 5.05893589 371.69978198 8.4375 370.375 C23.59552162 364.12841245 34.73179034 353.65209374 42 339 C44.51618749 332.88004214 46.1198428 326.77002456 46.13422108 320.126297 C46.13867892 319.16642506 46.14313676 318.20655312 46.14772969 317.21759415 C46.14754533 316.17101513 46.14736097 315.12443611 46.14717102 314.04614258 C46.15084771 312.92806591 46.1545244 311.80998924 46.1583125 310.65803146 C46.16934422 306.90352676 46.17319235 303.14904973 46.17700195 299.39453125 C46.18326703 296.70555965 46.18990125 294.016591 46.19691467 291.32762146 C46.21665456 283.25245356 46.2267426 275.17728445 46.23564246 267.10209846 C46.24002982 263.29531905 46.2453955 259.48854102 46.25063133 255.6817627 C46.26764188 243.01993092 46.28213446 230.35809999 46.28938007 217.69625854 C46.29128984 214.41225178 46.29321019 211.12824502 46.29516602 207.84423828 C46.29589163 206.619966 46.29589163 206.619966 46.2966319 205.37096095 C46.3049263 192.1592044 46.330254 178.94753857 46.36274669 165.7358216 C46.3958651 152.15849974 46.41383319 138.58122389 46.41702431 125.00386143 C46.4191851 117.38603145 46.42787013 109.76833371 46.45348549 102.15054321 C46.47525803 95.66073792 46.48321091 89.17109701 46.47351871 82.68125933 C46.46899268 79.37423235 46.47297007 76.06761269 46.49028015 72.76061821 C46.59375643 51.8134639 44.84462007 34.45125657 29.7421875 18.484375 C21.03596385 10.59668519 11.0508368 4.9099795 0 1 C0 0.67 0 0.34 0 0 Z " fill="#030304" transform="translate(1225,682)"/>
<path d="M0 0 C46.2 0 92.4 0 140 0 C137.58887811 1.60741459 135.23895615 2.95965537 132.6875 4.3125 C123.7134153 9.33682574 118.17791795 15.58477229 114.8515625 25.3828125 C113.99161948 29.03559797 113.66610209 32.25148922 113.625 36 C113.59664062 37.155 113.56828125 38.31 113.5390625 39.5 C114.30771795 51.89623536 119.7068693 64.06143262 124.16485596 75.50073242 C125.22547076 78.22243903 126.27668392 80.94762499 127.32568359 83.67382812 C128.43589635 86.55889977 129.54662288 89.44376026 130.66009521 92.32757568 C134.18470056 101.45760511 137.64629207 110.61084834 141.09619141 119.76931763 C142.86260301 124.45775923 144.63243648 129.14490837 146.40234375 133.83203125 C146.76842743 134.80158249 147.13451111 135.77113373 147.51168823 136.77006531 C154.55432722 155.4160238 161.6340039 174.04798496 168.70597839 192.68283081 C171.84171209 200.94585301 174.97543147 209.20963705 178.10792923 217.47388649 C190.01452626 248.8970009 190.01452626 248.8970009 201.97262573 280.30053711 C202.52528677 281.74784593 203.07764295 283.19527121 203.62966919 284.64282227 C204.36269034 286.56438465 205.09730542 288.48533877 205.83203125 290.40625 C206.23139893 291.45103516 206.6307666 292.49582031 207.04223633 293.57226562 C207.94224148 295.95762504 207.94224148 295.95762504 209 298 C217.32944815 277.95298549 225.64653881 257.90121224 233.875 237.8125 C242.06796803 217.81232733 250.31956868 197.83656257 258.57666016 177.86279297 C260.97270381 172.06650362 263.36743202 166.26967152 265.76171875 160.47265625 C266.15321609 159.52477234 266.54471344 158.57688843 266.94807434 157.60028076 C268.52497828 153.78222917 270.10182445 149.96415373 271.67861938 146.14605713 C276.54553416 134.36122198 281.41475252 122.57734455 286.2872467 110.79481506 C289.47501233 103.08512135 292.65744852 95.37323847 295.83726501 87.66026306 C297.7949099 82.91364238 299.75914425 78.16988397 301.73379517 73.43031311 C302.53535247 71.50430455 303.33381048 69.57704802 304.13085938 67.64916992 C305.04183672 65.44645031 305.95794062 63.24583873 306.88085938 61.0480957 C311.99041417 48.63511837 314.56608122 36.37844628 309.25 23.53125 C303.34667515 11.57701718 292.97364316 5.93969689 281 1 C281 0.67 281 0.34 281 0 C313.34 0 345.68 0 379 0 C375.70129133 2.47403151 373.05639308 3.99250503 369.375 5.6875 C363.17784613 8.73713222 358.19685775 12.49033005 353 17 C352.25105469 17.60457031 351.50210937 18.20914063 350.73046875 18.83203125 C333.62697123 33.05998453 324.70165972 53.8295162 316.5 73.9375 C315.71979715 75.82836102 314.93860733 77.71881507 314.15649414 79.60888672 C312.54978089 83.49575347 310.94855765 87.38480907 309.35205078 91.27587891 C307.13248804 96.68312004 304.89583825 102.08311954 302.65234375 107.48046875 C301.94724958 109.17715805 301.24217138 110.87385398 300.53710938 112.57055664 C300.19059326 113.40442902 299.84407715 114.23830139 299.48706055 115.09744263 C297.72655002 119.33711357 295.97067116 123.5787004 294.21484375 127.8203125 C290.33451635 137.1934694 286.4496766 146.56474982 282.56350708 155.93548584 C280.79214259 160.20690951 279.02108677 164.47846117 277.25 168.75 C276.54166815 170.45833395 275.83333482 172.16666728 275.125 173.875 C274.774375 174.720625 274.42375 175.56625 274.0625 176.4375 C236.87499997 266.12500008 236.87499997 266.12500008 235.81256104 268.68734741 C235.10401917 270.39618727 234.39548239 272.10502923 233.68695068 273.81387329 C231.91934949 278.07697415 230.15166083 282.34003869 228.38378906 286.60302734 C224.79035472 295.26839381 221.19851216 303.93441522 217.609375 312.6015625 C211.20924082 328.05532805 204.80794825 343.50874184 198.35925293 358.94232178 C197.7911168 360.30285405 197.22380122 361.6637293 196.65734863 363.02496338 C195.88853849 364.8718054 195.11624882 366.71719784 194.34375 368.5625 C193.91255859 369.59503906 193.48136719 370.62757813 193.03710938 371.69140625 C192 374 192 374 191 375 C188.13732433 375.07325168 185.299281 375.09238205 182.4375 375.0625 C181.63119141 375.05798828 180.82488281 375.05347656 179.99414062 375.04882812 C177.99606244 375.03700518 175.99802217 375.01906914 174 375 C173.55422607 373.80777832 173.10845215 372.61555664 172.64916992 371.38720703 C161.64801559 341.9729487 150.55200185 312.59604078 139.37792969 283.24707031 C135.86750416 274.02614186 132.36256646 264.80312792 128.85787964 255.58001709 C128.07693965 253.5248647 127.29595405 251.46972964 126.5149231 249.41461182 C119.53355355 231.04452734 112.56322073 212.67026514 105.59506226 194.29516602 C100.78538426 181.6122049 95.97486731 168.92956802 91.15625 156.25 C90.76842346 155.22945526 90.38059692 154.20891052 89.98101807 153.15744019 C88.05822918 148.09827092 86.13463621 143.03940896 84.20996094 137.98095703 C80.09903939 127.17368131 76.00164272 116.36142526 71.92172241 105.5424118 C70.43027096 101.58881505 68.93661787 97.63604938 67.44296265 93.68328476 C66.24034379 90.50000804 65.03928733 87.316161 63.84204102 84.13085938 C50.21531275 47.8964258 36.52783895 18.31651155 0 1 C0 0.67 0 0.34 0 0 Z " fill="#030304" transform="translate(625,682)"/>
<path d="M0 0 C49.83 0 99.66 0 151 0 C148.15584037 1.89610642 145.6727987 2.96430261 142.5 4.1875 C127.26354638 10.49160566 116.12747972 20.01100066 109 35 C103.68539929 48.47543241 104.44098138 62.50373539 104.49829102 76.7565918 C104.49450274 79.44867762 104.48914975 82.1407196 104.48191833 84.83279419 C104.46806544 91.3540277 104.47548207 97.87506611 104.49059392 104.39629015 C104.50754701 112.00466528 104.50423222 119.61299308 104.50049984 127.22138128 C104.49463614 140.802656 104.50873569 154.38383769 104.53344727 167.96508789 C104.55737787 181.11876917 104.56444407 194.27232625 104.55395508 207.42602539 C104.54252692 221.78301305 104.54063812 236.13994343 104.55505317 250.49693042 C104.55657887 252.02978662 104.55809923 253.56264283 104.55961418 255.09549904 C104.5607509 256.22652448 104.5607509 256.22652448 104.56191059 257.38039893 C104.56663765 262.67388782 104.56481333 267.96735098 104.56054878 273.26083946 C104.55560499 279.71639888 104.56168282 286.17184128 104.58144308 292.62737402 C104.59126425 295.9160387 104.5948499 299.20449102 104.58855057 302.49316978 C104.58256297 306.06824082 104.59516991 309.64279463 104.61231995 313.21781921 C104.6063099 314.2426441 104.60029986 315.26746899 104.59410769 316.32334918 C104.72210761 331.07340983 109.62224949 345.23250899 119.8671875 356.09765625 C127.62768485 363.01956506 136.35454255 368.1510915 146 372 C146.928125 372.37253906 147.85625 372.74507812 148.8125 373.12890625 C149.534375 373.41636719 150.25625 373.70382812 151 374 C151 374.33 151 374.66 151 375 C101.17 375 51.34 375 0 375 C2.25396568 372.74603432 4.48996547 371.88218743 7.40820312 370.69165039 C14.81205122 367.67020241 21.07206361 364.47651038 27 359 C27.69480469 358.39542969 28.38960938 357.79085938 29.10546875 357.16796875 C39.47372528 347.61672305 44.78941313 333.87695698 46 320 C46.1376069 316.35222842 46.13936744 312.70834584 46.13371277 309.05828857 C46.13597833 307.97777859 46.13824388 306.89726861 46.14057809 305.78401589 C46.1468924 302.17468453 46.14609038 298.56539096 46.14526367 294.95605469 C46.14825677 292.36354016 46.15165965 289.77102607 46.15544128 287.17851257 C46.16372914 280.87362594 46.16649528 274.56874866 46.16705366 268.26385704 C46.16752972 263.13590751 46.16958896 258.00796106 46.17275429 252.88001251 C46.18155589 238.32361907 46.18617445 223.76723298 46.18542381 209.21083686 C46.18536388 208.03501998 46.18536388 208.03501998 46.18530273 206.83544922 C46.18524141 205.65818745 46.18524141 205.65818745 46.18517885 204.45714262 C46.18477256 191.74285447 46.19433926 179.02859595 46.2084411 166.31431636 C46.22282498 153.24201959 46.22971017 140.16973726 46.22884732 127.09743237 C46.22851604 119.76532822 46.23123289 112.43325514 46.24202538 105.10115814 C46.25211422 98.20319357 46.2517745 91.3052955 46.24450874 84.40732765 C46.24346489 81.88064541 46.24581391 79.35395906 46.2518692 76.82728386 C46.25962031 73.36799486 46.2549236 69.90893038 46.24723816 66.449646 C46.25238172 65.45895575 46.25752529 64.46826551 46.26282471 63.44755435 C46.1772802 45.9238451 41.61352455 29.63449816 29 17 C21.93611447 10.79712981 13.69245618 6.46862434 5 3 C4.071875 2.62746094 3.14375 2.25492188 2.1875 1.87109375 C1.465625 1.58363281 0.74375 1.29617188 0 1 C0 0.67 0 0.34 0 0 Z " fill="#030304" transform="translate(445,682)"/>
<path d="M0 0 C49.83 0 99.66 0 151 0 C148.13646952 1.90902032 145.63595713 2.96566436 142.4375 4.1875 C136.28658192 6.71761226 131.22499651 9.91548496 126 14 C125.28972656 14.53367187 124.57945313 15.06734375 123.84765625 15.6171875 C112.29572951 24.88533602 106.93912511 38.70073634 105 53 C104.74394799 56.81264639 104.72078596 60.6071171 104.73257446 64.42741394 C104.72577779 66.07229175 104.72577779 66.07229175 104.71884382 67.75039941 C104.70626225 71.39638754 104.70781616 75.04222509 104.70947266 78.68823242 C104.70348351 81.3141092 104.69667707 83.93998421 104.68911743 86.56585693 C104.67257042 92.94186407 104.66701075 99.31783421 104.66589268 105.69386103 C104.66493919 110.88177705 104.66081397 116.06968097 104.65449142 121.25759315 C104.63689613 135.9973542 104.62764986 150.73708624 104.62915237 165.47685786 C104.62927224 166.66647606 104.62927224 166.66647606 104.62939453 167.88012695 C104.62951717 169.07121379 104.62951717 169.07121379 104.62964229 170.28636298 C104.63045469 183.14652591 104.61132433 196.00657158 104.5831178 208.86670061 C104.55432002 222.10183967 104.54058129 235.33692168 104.54230535 248.57209283 C104.54296688 255.99039024 104.53757916 263.40856471 104.51594925 270.82683372 C104.49764639 277.14404264 104.49346415 283.46107288 104.5069681 289.77829697 C104.51345235 292.99459685 104.51156388 296.21048753 104.4962616 299.42676735 C104.4027437 320.45569873 105.39407241 339.67716559 120.62890625 355.6875 C129.38513742 364.22734984 139.62983379 369.61863896 151 374 C151 374.33 151 374.66 151 375 C101.17 375 51.34 375 0 375 C2.37466762 372.62533238 4.37236734 371.95913634 7.5 370.75 C23.06732693 364.37055778 34.5559218 355.21391638 41.5078125 339.6171875 C45.14171272 330.50128923 46.14858699 322.73932722 46.14044189 313.0018158 C46.14341302 311.89105181 46.14638414 310.78028782 46.1494453 309.63586432 C46.15812007 305.91210178 46.15963953 302.18837145 46.16113281 298.46459961 C46.16576189 295.79518483 46.17076629 293.12577295 46.17617798 290.45635986 C46.18974035 283.20194309 46.19578296 275.94753185 46.20018864 268.69310451 C46.20295503 264.15915164 46.20719315 259.6252009 46.21169281 255.09124947 C46.22388355 242.52631101 46.23418272 229.96137425 46.2375679 217.39643002 C46.23778747 216.59275318 46.23800703 215.78907634 46.23823325 214.96104566 C46.23845153 214.15549443 46.23866981 213.3499432 46.2388947 212.51998132 C46.23933816 210.88775122 46.23978472 209.25552112 46.24023438 207.62329102 C46.24056652 206.40883883 46.24056652 206.40883883 46.24090537 205.16985226 C46.2448503 192.06164142 46.26229586 178.95348626 46.2855939 165.84529691 C46.30934673 152.37190413 46.32177157 138.89853923 46.32293582 125.42512518 C46.32385046 117.86658129 46.32954924 110.30810994 46.34775543 102.74958611 C46.3632097 96.31105933 46.3682457 89.87262753 46.36001733 83.43408572 C46.35612933 80.15344506 46.35860481 76.87303389 46.37107468 73.59240913 C46.44849714 51.94743306 45.43373867 33.84199794 29.63671875 17.34765625 C20.90292137 9.57134184 11.05713927 4.65510086 0 1 C0 0.67 0 0.34 0 0 Z " fill="#030304" transform="translate(1033,682)"/>
<path d="M0 0 C4.31828109 1.62325747 7.03323987 4.92414071 10.0625 8.25 C10.92186157 9.18827637 10.92186157 9.18827637 11.79858398 10.14550781 C37.52162137 38.5565581 57.2983631 73.46235006 67 110.625 C67.25418701 111.59775879 67.50837402 112.57051758 67.77026367 113.57275391 C70.62635373 124.91228871 72.42746496 136.42081144 74 148 C74.10530029 148.70809814 74.21060059 149.41619629 74.3190918 150.14575195 C75.35136758 157.86350446 75.19603048 165.66601921 75.1875 173.4375 C75.18789276 174.19201447 75.18828552 174.94652893 75.18869019 175.72390747 C75.17197197 202.4840841 75.17197197 202.4840841 72 212 C71.36835937 211.86424561 70.73671875 211.72849121 70.0859375 211.58862305 C62.40975978 209.95508487 54.71424964 208.44266487 47 207 C46.08186523 206.8246875 45.16373047 206.649375 44.21777344 206.46875 C29.37478527 203.76079321 14.47794627 203.68839633 -0.5625 203.625 C-2.04100433 203.61308121 -2.04100433 203.61308121 -3.54937744 203.60092163 C-22.17950722 203.48568172 -40.74674119 204.86899382 -58.8125 209.6875 C-60.54776598 210.13051963 -62.28342296 210.57201157 -64.01953125 211.01171875 C-64.74245361 211.20209717 -65.46537598 211.39247559 -66.21020508 211.58862305 C-68 212 -68 212 -70 212 C-72.34228434 199.60664742 -72.39900292 187.32061962 -72.375 174.75 C-72.37445618 173.68274689 -72.37391235 172.61549377 -72.37335205 171.51589966 C-72.33541409 155.33535827 -71.67112533 139.82218942 -68 124 C-67.67056396 122.52901855 -67.67056396 122.52901855 -67.33447266 121.02832031 C-64.27591014 107.6381804 -60.20034327 94.70842157 -55 82 C-54.51539307 80.80842285 -54.51539307 80.80842285 -54.02099609 79.59277344 C-41.44897406 49.14500262 -22.16614836 23.99329291 0 0 Z " fill="#E6354F" transform="translate(978,30)"/>
<path d="M0 0 C6.41313594 1.01995568 11.89004586 4.06806264 17.6875 6.875 C18.59263336 7.31283813 18.59263336 7.31283813 19.51605225 7.75952148 C40.81159229 18.09942203 59.64878457 30.85637832 77 47 C78.39160821 48.2131969 79.78727188 49.42176214 81.1875 50.625 C87.68110756 56.31340022 93.27528833 62.38978377 98.68359375 69.125 C100.17495378 70.9759966 101.68661746 72.81090849 103.22265625 74.625 C125.09258731 100.54491829 141.91574809 133.80521964 149 167 C136.31147006 171.26734102 123.21900654 173.14977214 110 175 C108.10386963 175.26695679 108.10386963 175.26695679 106.16943359 175.53930664 C101.95106186 176.05753527 97.77799972 176.177777 93.53125 176.203125 C92.74159348 176.21009399 91.95193695 176.21706299 91.13835144 176.22424316 C88.59217969 176.24158581 86.04622843 176.24796711 83.5 176.25 C82.62928864 176.25100708 81.75857727 176.25201416 80.86148071 176.25305176 C66.72271191 176.2420014 52.93726502 175.55461998 39 173 C37.79923828 172.7831958 37.79923828 172.7831958 36.57421875 172.56201172 C24.76451344 170.35136414 13.3614666 166.86892467 2 163 C0.94167969 162.64550781 -0.11664062 162.29101562 -1.20703125 161.92578125 C-26.32367201 152.88110071 -48.84474869 139.06407723 -70 123 C-67.59677654 119.21505746 -65.2218497 116.04492982 -61.9375 113 C-55.97244385 107.16185994 -51.02153913 100.64401574 -46 94 C-45.53271484 93.38817871 -45.06542969 92.77635742 -44.58398438 92.14599609 C-37.71125719 83.127324 -31.57819485 73.87007649 -26 64 C-25.63696777 63.36964844 -25.27393555 62.73929687 -24.89990234 62.08984375 C-13.75873032 42.62842284 -6.38780488 21.42267358 0 0 Z " fill="#F29E28" transform="translate(1066,271)"/>
<path d="M0 0 C0.15968262 0.5762915 0.31936523 1.15258301 0.48388672 1.74633789 C4.79802481 17.10012831 10.23735826 31.56114261 17 46 C17.3520752 46.75394043 17.70415039 47.50788086 18.06689453 48.28466797 C29.04957813 71.55379293 43.34357345 92.19316795 60.51953125 111.32617188 C62.62991829 113.71218993 64.66759692 116.15837775 66.703125 118.60839844 C67.97051426 120.13085592 67.97051426 120.13085592 70 121 C68.56103349 125.31689954 65.29438974 126.94824935 61.6875 129.4375 C60.92985352 129.9639209 60.17220703 130.4903418 59.39160156 131.03271484 C5.24874859 168.16901738 -60.83544585 185.08437616 -126 173 C-133.7034802 171.49347965 -141.36367709 169.81535047 -149 168 C-136.8779813 109.73232558 -96.99928103 56.03820126 -47.69433594 23.58276367 C-11.06811341 0 -11.06811341 0 0 0 Z " fill="#468CC7" transform="translate(892,271)"/>
<path d="M0 0 C640.53 0 1281.06 0 1941 0 C1941 1.98 1941 3.96 1941 6 C1300.47 6 659.94 6 0 6 C0 4.02 0 2.04 0 0 Z " fill="#030304" transform="translate(10,1510)"/>
<path d="M0 0 C640.53 0 1281.06 0 1941 0 C1941 1.98 1941 3.96 1941 6 C1300.47 6 659.94 6 0 6 C0 4.02 0 2.04 0 0 Z " fill="#030304" transform="translate(10,1347)"/>
<path d="M0 0 C0.93457031 0.09990234 1.86914062 0.19980469 2.83203125 0.30273438 C3.80011719 0.42326172 4.76820313 0.54378906 5.765625 0.66796875 C6.74917969 0.77689453 7.73273438 0.88582031 8.74609375 0.99804688 C11.17140003 1.2688335 13.59383145 1.55512322 16.015625 1.85546875 C16.015625 4.85546875 16.015625 4.85546875 13.83984375 7.28125 C12.80538637 8.25542949 11.75869773 9.21670961 10.703125 10.16796875 C10.12771973 10.6899585 9.55231445 11.21194824 8.95947266 11.74975586 C-4.4447424 23.64762259 -19.22641215 33.38608162 -34.984375 41.85546875 C-35.66564453 42.22365723 -36.34691406 42.5918457 -37.04882812 42.97119141 C-83.11961682 67.60658112 -132.38917305 73.38500983 -183.77557039 73.15965056 C-188.86301199 73.14062177 -193.95046165 73.13911306 -199.03793335 73.13557434 C-208.62776179 73.12632952 -218.217485 73.10182064 -227.80726755 73.07152587 C-238.74356042 73.0377432 -249.6798589 73.02143648 -260.61619115 73.00643957 C-283.07232383 72.97526234 -305.52831265 72.92034759 -327.984375 72.85546875 C-327.984375 49.42546875 -327.984375 25.99546875 -327.984375 1.85546875 C-322.374375 2.18546875 -316.764375 2.51546875 -310.984375 2.85546875 C-310.984375 20.34546875 -310.984375 37.83546875 -310.984375 55.85546875 C-289.77233543 55.79231172 -268.56045098 55.7168892 -247.34854221 55.61975384 C-237.49677674 55.57502185 -227.64504561 55.53555691 -217.79321289 55.5090332 C-209.19409492 55.48586818 -200.59508771 55.45226906 -191.99605793 55.40676719 C-187.45407252 55.383081 -182.9121951 55.36419293 -178.37014961 55.35785484 C-116.92423398 55.26074287 -54.61249781 43.23013624 -7.13110352 1.21557617 C-4.43987686 -0.48951012 -3.13292873 -0.36296126 0 0 Z " fill="#030304" transform="translate(1111.984375,472.14453125)"/>
<path d="M0 0 C9.50241672 -0.07002015 19.00474239 -0.12307197 28.50736237 -0.15543652 C32.92150594 -0.17098278 37.3354709 -0.19201474 41.74951172 -0.22631836 C46.02246311 -0.25931142 50.2952445 -0.2769356 54.5683136 -0.28463173 C56.18511119 -0.29010458 57.80190123 -0.30078749 59.41862488 -0.31719017 C73.14317441 -0.45068598 87.78927149 -0.00284016 100 7 C100.63292969 7.34675781 101.26585937 7.69351562 101.91796875 8.05078125 C107.48765768 11.50660103 110.5825139 16.69337025 112.61328125 22.86328125 C114.54256412 33.52305629 112.91245811 42.62414234 107.3125 51.75 C103.90707349 55.06338796 100.01134523 57.48090475 96 60 C95.01 60.66 94.02 61.32 93 62 C93.50789063 62.32871094 94.01578125 62.65742187 94.5390625 62.99609375 C104.74756947 70.05028677 108.57061312 79.00731239 111 91 C111.37074307 94.39541924 111.61465526 97.74698544 111.7265625 101.16015625 C112.01082362 104.11241101 112.76903092 106.3164874 114 109 C120.80102897 109.73924228 125.13476677 107.23599075 131 104 C132.20497434 103.38916152 133.41268091 102.78362854 134.625 102.1875 C135.40875 101.795625 136.1925 101.40375 137 101 C133.89498161 109.56140992 128.25175471 116.10333805 120 120 C112.37205613 122.86047895 105.63914084 122.79674586 98.10546875 119.95703125 C92.53955554 117.4270707 90.01508033 114.73212885 87.6875 109.1875 C85.92457302 103.82646795 85.58114761 98.58457275 85.35327148 92.99731445 C85.02163993 85.57849549 84.32624439 77.53797092 79.6875 71.4375 C73.99268249 66.27243295 68.50789279 65.41847539 61.125 64.8125 C60.24585938 64.73064453 59.36671875 64.64878906 58.4609375 64.56445312 C56.30825676 64.36556414 54.15423365 64.18129689 52 64 C52.0692448 69.12334972 52.15738654 74.24591175 52.26245117 79.36865234 C52.29554293 81.10847172 52.32362307 82.84839439 52.34643555 84.58837891 C52.38027355 87.10103041 52.43260026 89.61274866 52.48828125 92.125 C52.49467117 92.89303955 52.5010611 93.6610791 52.50764465 94.45239258 C52.67693823 100.78279243 53.73752402 106.63201996 58.26171875 111.3671875 C61.40468705 113.24131125 64.27440252 114.19659074 67.8125 115.125 C69.03839844 115.45242188 70.26429687 115.77984375 71.52734375 116.1171875 C72.67332031 116.40851563 73.81929687 116.69984375 75 117 C75.88816406 117.22945312 76.77632812 117.45890625 77.69140625 117.6953125 C79.45750462 118.14394572 81.22812589 118.57475021 83 119 C83 119.33 83 119.66 83 120 C55.28 120 27.56 120 -1 120 C3.15344604 117.23103597 7.66469026 116.6438667 12.48828125 115.67578125 C17.67114074 114.55145723 21.65561687 113.10158696 26 110 C29.1751235 105.06235576 29.43629786 101.00805051 29.40405273 95.3359375 C29.41434761 94.06160858 29.41434761 94.06160858 29.42485046 92.76153564 C29.44308497 89.96585162 29.43928621 87.17073048 29.43359375 84.375 C29.43815674 82.4249656 29.44346267 80.47493281 29.44947815 78.52490234 C29.45840236 74.44296728 29.45599346 70.36122795 29.44604492 66.27929688 C29.43454867 61.05369032 29.45478039 55.82875885 29.48396206 50.60324097 C29.50232405 46.57800013 29.50203172 42.55292114 29.49632454 38.52764893 C29.49617136 36.6011663 29.50221249 34.67467268 29.51461601 32.74822998 C29.52952641 30.05307856 29.51884936 27.35917537 29.50170898 24.6640625 C29.51137695 23.87219543 29.52104492 23.08032837 29.53100586 22.26446533 C29.46188806 17.06332444 28.40689857 14.14171315 25 10 C20.38844414 6.17480771 15.97665351 5.00461433 10.25 3.875 C2.24762658 2.24762658 2.24762658 2.24762658 0 0 Z M52 8 C52 23.84 52 39.68 52 56 C72.21114562 57.63978318 72.21114562 57.63978318 82 52 C87.99057361 44.9675875 89.47380201 38.51345087 89.31640625 29.33203125 C88.73210739 23.17885934 86.96663873 18.07294352 82.6875 13.5625 C72.34917313 7.55184484 64.33468478 8 52 8 Z " fill="#030304" transform="translate(1310,1143)"/>
<path d="M0 0 C42.57 0 85.14 0 129 0 C127 6 127 6 121 17 C86.68 17 52.36 17 17 17 C17.0928125 31.93378906 17.185625 46.86757812 17.28125 62.25390625 C17.32211463 71.7011829 17.36095604 81.14839567 17.390625 90.59570312 C17.43812009 105.59893635 17.49399579 120.60181053 17.60351562 135.60473633 C17.68323583 146.53066888 17.73486172 157.45631055 17.75270796 168.38252586 C17.76314065 174.1684294 17.78766969 179.95350076 17.84584045 185.73913765 C17.9001544 191.18531694 17.91689002 196.63032158 17.90486145 202.07674599 C17.90706181 204.07505427 17.92296921 206.07340194 17.9536438 208.07147598 C18.1745333 223.20230616 18.1745333 223.20230616 15.23677063 227.69872856 C13.23215451 229.47292036 11.34467685 230.7310395 9 232 C7.10563665 233.87126136 5.27377246 235.78007798 3.4453125 237.71484375 C2 239 2 239 0 239 C0 160.13 0 81.26 0 0 Z " fill="#030304" transform="translate(784,69)"/>
<path d="M0 0 C8.81314724 7.61498523 15.0489932 15.94253981 19.1484375 26.859375 C19.46941406 27.70371094 19.79039062 28.54804687 20.12109375 29.41796875 C25.43003608 46.43127697 23.34544719 66.88089319 15.4609375 82.671875 C6.5437848 97.71258619 -5.89511429 105.46652573 -22.234375 110.609375 C-38.84912936 114.77753637 -58.62313333 112.40485519 -73.328125 103.6171875 C-87.56223305 93.70178716 -96.79416612 80.68097822 -100.34765625 63.64453125 C-102.89068161 44.54227097 -100.51103308 25.70976585 -88.67578125 9.96484375 C-66.74635265 -15.297555 -27.17025523 -20.39630119 0 0 Z M-63.78125 4.54296875 C-76.25512239 17.41836064 -76.92200974 36.95203692 -76.8515625 53.859375 C-76.30907419 68.44691418 -74.11215806 83.75544282 -63.8515625 94.859375 C-55.2497346 101.95625188 -45.93869756 104.77482652 -34.8515625 103.859375 C-25.90195028 102.45130268 -18.23409777 99.80075705 -12.10546875 92.890625 C0.36102871 75.72976067 -0.10201688 50.46739263 -3.16015625 30.30078125 C-5.72842608 17.51747209 -11.2549487 7.60168206 -21.8515625 -0.140625 C-34.7323505 -7.40799566 -52.85102694 -4.99331898 -63.78125 4.54296875 Z " fill="#030304" transform="translate(442.8515625,1153.140625)"/>
<path d="M0 0 C38.61 0 77.22 0 117 0 C117 13.86 117 27.72 117 42 C113.84997574 40.42498787 113.4577901 37.21461527 112.3125 34.0625 C108.23592019 23.47445445 103.32370966 15.42194829 93 10 C89.20147026 8.73382342 85.57578638 8.76691412 81.61328125 8.68359375 C80.88894897 8.66494263 80.1646167 8.6462915 79.41833496 8.6270752 C76.71651225 8.5588552 74.01449181 8.4986569 71.3125 8.4375 C65.269375 8.293125 59.22625 8.14875 53 8 C53 23.84 53 39.68 53 56 C67.95483832 54.13064521 75.49753087 53.10610459 84.4296875 41.9296875 C86.14139364 39.82624762 88.08239769 37.91760231 90 36 C90 51.84 90 67.68 90 84 C87.48309018 81.48309018 86.08885811 79.60765287 84.3125 76.625 C79.83095651 69.78591998 74.63206095 67.54402032 67 65 C60.07 64.505 60.07 64.505 53 64 C53 79.84 53 95.68 53 112 C59.06375 111.9175 65.1275 111.835 71.375 111.75 C73.26782715 111.73420898 75.1606543 111.71841797 77.11083984 111.70214844 C87.958202 111.53233499 97.79743534 111.0339138 106 103 C112.46703218 95.01049156 115.71555272 85.58866111 119 76 C119.33 76 119.66 76 120 76 C120 90.52 120 105.04 120 120 C80.4 120 40.8 120 0 120 C4.55256528 117.72371736 9.04898659 116.72795277 13.98046875 115.67578125 C19.18812385 114.46948826 23.9911135 113.00569096 27.12459564 108.31738281 C29.78591436 103.24217306 30.5795127 99.19978471 30.51757812 93.5078125 C30.5245874 92.7001947 30.53159668 91.8925769 30.53881836 91.06048584 C30.55629299 88.41496465 30.5448137 85.77053034 30.53125 83.125 C30.53394795 81.27229611 30.5378329 79.4195936 30.54284668 77.56689453 C30.54872746 73.69354707 30.54022475 69.82056987 30.52148438 65.94726562 C30.49869565 60.99763513 30.51182637 56.04887239 30.53577423 51.09927368 C30.55027073 47.2763828 30.54560861 43.45369556 30.53526306 39.63079834 C30.53260641 37.80645646 30.53582794 35.98209572 30.54518127 34.15777588 C30.55541075 31.60208592 30.53975795 29.04777546 30.51757812 26.4921875 C30.52567505 25.74805603 30.53377197 25.00392456 30.54211426 24.23724365 C30.45510425 18.78932946 29.02544282 14.55446824 26 10 C21.40599137 5.92986955 16.61056946 4.96204111 10.75 3.875 C9.13932179 3.56662648 7.52985862 3.25181667 5.921875 2.9296875 C5.21643555 2.79804199 4.51099609 2.66639648 3.78417969 2.53076172 C2 2 2 2 0 0 Z " fill="#030304" transform="translate(1497,1143)"/>
<path d="M0 0 C4.21322168 3.92997988 7.43250079 8.32210274 7.796875 14.27734375 C7.55436573 18.3166387 6.88767444 19.97430901 4.234375 23.171875 C0.19536227 26.42278768 -2.13385899 26.58652863 -7.328125 26.234375 C-10.53109043 24.70568695 -13.07536601 22.97421702 -15.328125 20.234375 C-16.1015625 17.52734375 -16.1015625 17.52734375 -16.703125 14.421875 C-18.20462152 8.07115757 -19.64081139 4.83429901 -25.08984375 0.9921875 C-32.93594456 -3.34184914 -43.09933382 -2.97845704 -51.62890625 -1 C-57.1828348 0.89389715 -62.15193519 3.07889978 -65.578125 8.046875 C-67.56156853 13.83191863 -67.77355399 18.56542598 -65.328125 24.234375 C-63.09777068 25.38530616 -63.09777068 25.38530616 -60.328125 26.234375 C-59.30203125 26.59015625 -58.2759375 26.9459375 -57.21875 27.3125 C-49.88932193 29.67175796 -42.60101282 31.65721416 -35.08007812 33.32177734 C-20.41788563 36.59104999 -3.38370345 40.82732689 5.45483398 54.16992188 C9.36401283 60.80101843 10.17339009 67.66895511 10.109375 75.234375 C10.12935547 76.07226562 10.14933594 76.91015625 10.16992188 77.7734375 C10.16267573 87.13546267 6.2496878 95.57223127 -0.328125 102.234375 C-14.46101636 112.715479 -30.92092176 113.84931596 -47.89453125 111.73828125 C-59.61603905 109.9926645 -72.85142809 107.08596268 -81.328125 98.234375 C-85.08266279 93.08926765 -86.04826978 88.50992234 -85.328125 82.234375 C-83.94164182 78.76816706 -82.70282441 77.4957932 -79.640625 75.359375 C-75.60303541 73.98811816 -72.37384241 73.80785036 -68.328125 75.234375 C-64.73044014 77.42193897 -63.5099431 78.69908817 -62.140625 82.73046875 C-61.85102258 84.0402615 -61.58054239 85.35441074 -61.328125 86.671875 C-60.25850682 92.2218836 -58.82684703 95.56701143 -54.328125 99.234375 C-52.37139322 100.38246608 -52.37139322 100.38246608 -50.390625 100.984375 C-49.76285156 101.20609375 -49.13507813 101.4278125 -48.48828125 101.65625 C-37.24178499 104.6661622 -24.40964331 104.60166015 -14.0078125 98.98046875 C-9.12272261 95.67266803 -5.95243956 91.95478716 -4.328125 86.234375 C-3.54172953 81.32876517 -3.40408822 77.66822518 -6.140625 73.421875 C-15.26267064 67.1616476 -25.76838053 64.50796325 -36.328125 61.734375 C-52.60459267 57.45925077 -69.09547618 52.58232824 -79.328125 38.234375 C-84.00236652 29.91697464 -84.5565559 20.34272524 -82.328125 11.171875 C-79.59944123 3.16186782 -74.13673357 -2.10348884 -66.828125 -6.140625 C-45.68557721 -15.72666682 -18.70984088 -14.18934241 0 0 Z " fill="#030304" transform="translate(249.328125,1152.765625)"/>
<path d="M0 0 C8.21064051 6.844675 8.21064051 6.844675 9.06640625 12.62109375 C9.33181385 17.0666711 9.25849227 20.30070991 6.41015625 23.86328125 C3.25837939 26.72186956 1.60745582 27.21730959 -2.58984375 27.61328125 C-6.97936955 27.24128754 -8.92510718 26.10730489 -12.27734375 23.30078125 C-14.0533729 20.38213195 -14.61381495 17.78413828 -15.08984375 14.42578125 C-16.19297573 8.74298014 -18.23021823 5.45803826 -23.04296875 2.05078125 C-31.38388296 -2.53353801 -42.84137759 -1.87199222 -51.83984375 0.42578125 C-57.6531998 2.51388384 -62.02319193 5.68342094 -64.71484375 11.30078125 C-65.52024672 15.59626376 -65.85397132 18.78713389 -64.27734375 22.92578125 C-59.77011101 28.27812013 -52.64848947 29.98772516 -46.04296875 31.484375 C-45.2836908 31.66662125 -44.52441284 31.84886749 -43.74212646 32.03663635 C-40.53947924 32.8050868 -37.33168955 33.55092195 -34.12402344 34.2980957 C-18.40171114 37.98411878 -1.70745674 41.93241382 7.72265625 56.30078125 C12.96307094 65.85395958 13.08126885 76.96787217 11.1328125 87.484375 C8.55078241 95.87299809 3.13971021 102.46376388 -4.21484375 107.1875 C-21.96330097 116.53713371 -43.51014253 115.01463754 -62.27734375 109.30078125 C-70.44359385 106.38213062 -77.34826484 102.6239842 -82.27734375 95.30078125 C-83.72463265 90.95891454 -83.79922231 86.8382254 -83.27734375 82.30078125 C-81.50357036 79.14740634 -80.08071419 77.79172985 -77.02734375 75.92578125 C-71.91040149 74.76283983 -67.93549919 75.26904009 -63.46484375 78.05078125 C-60.64205412 82.24464012 -59.98582431 86.20106151 -59.1484375 91.14453125 C-58.14582822 94.77730388 -56.92123746 96.63357278 -54.27734375 99.30078125 C-43.92713298 105.1078302 -30.77533963 106.0090483 -19.37109375 103.0546875 C-11.97893844 100.39295993 -6.75451216 95.78327647 -2.96484375 88.92578125 C-1.55907165 83.55828777 -1.37859468 79.93778849 -4.02734375 75.11328125 C-11.00098093 67.87586871 -23.75533806 65.87619595 -33.08984375 63.36328125 C-69.51503677 53.192564 -69.51503677 53.192564 -78.1953125 38.43359375 C-82.23196622 30.47686838 -82.5395495 21.1245027 -80.66015625 12.453125 C-77.74387596 4.10430489 -72.10609838 -1.55613746 -64.27734375 -5.51171875 C-43.98782118 -13.81835593 -18.03837052 -13.45916154 0 0 Z " fill="#030304" transform="translate(1782.27734375,1151.69921875)"/>
<path d="M0 0 C14.85 0 29.7 0 45 0 C58.57329549 35.18514461 58.57329549 35.18514461 64.5 50.90625 C65.0572451 52.38421806 65.0572451 52.38421806 65.62574768 53.89204407 C67.42443757 58.66526666 69.21987093 63.43968954 71.01147461 68.21557617 C72.66097816 72.60874642 74.32842332 76.99480422 76.00457764 81.37786865 C77.02966496 84.07814312 78.03232143 86.7862025 79.03564453 89.49462891 C79.71160092 91.27412957 80.3884884 93.0532769 81.06640625 94.83203125 C81.35821274 95.63678391 81.65001923 96.44153656 81.95066833 97.27067566 C84.68033224 104.32062828 88.68170647 110.18691178 95.41015625 113.86328125 C99.39446645 115.12490722 103.37029612 116.23116752 107.4375 117.1875 C108.16904297 117.36474609 108.90058594 117.54199219 109.65429688 117.72460938 C111.43488415 118.15520891 113.21726226 118.57839216 115 119 C115 119.33 115 119.66 115 120 C94.54 120 74.08 120 53 120 C53 118.35 53 116.7 53 115 C54.2375 114.13375 54.2375 114.13375 55.5 113.25 C58.12610253 111.33868177 58.12610253 111.33868177 58.3671875 109.14111328 C58.38912011 102.976678 56.93828662 98.24529773 54.5 92.625 C53.83944245 91.05649462 53.18300174 89.48624731 52.53125 87.9140625 C52.23798828 87.2329541 51.94472656 86.5518457 51.64257812 85.85009766 C51 84 51 84 51 81 C36.48 81 21.96 81 7 81 C6.01 83.97 5.02 86.94 4 90 C2.66614547 93.23936099 1.31990544 96.46640565 -0.1015625 99.66796875 C-1.26104206 102.4289077 -2.00176872 104.69401195 -1.984375 107.703125 C-0.57016017 111.00295961 0.93285449 112.11130496 4 114 C7.05369008 115.13526424 10.15472632 115.95744118 13.3125 116.75 C14.14845703 116.97042969 14.98441406 117.19085937 15.84570312 117.41796875 C17.89424225 117.95644189 19.94675489 118.47975929 22 119 C22 119.33 22 119.66 22 120 C1.54 120 -18.92 120 -40 120 C-36.84889445 117.89926297 -34.38346844 117.18036638 -30.75 116.1875 C-20.8004098 113.16176447 -16.08372599 109.02747389 -11 100 C-8.28559015 94.28910663 -6.02249623 88.37283226 -3.6875 82.5 C-2.64671221 79.91074433 -1.60271902 77.32279797 -0.55827332 74.73501587 C0.16777504 72.93596942 0.89268495 71.13646313 1.61650085 69.33651733 C4.27527357 62.74030287 7.01424264 56.18095719 9.7890625 49.6328125 C10.57396562 47.77285134 11.35871674 45.91282603 12.14331055 44.05273438 C13.28019611 41.35804594 14.42034117 38.66503805 15.57241821 35.97680664 C16.64104374 33.48111703 17.69487482 30.97962383 18.74609375 28.4765625 C19.0620047 27.74994415 19.37791565 27.02332581 19.70339966 26.27468872 C21.74473351 21.36444172 23.21143522 16.37274703 23 11 C19.54915802 5.63121637 14.56201213 4.60164854 8.6875 3.1875 C7.85154297 2.97158203 7.01558594 2.75566406 6.15429688 2.53320312 C4.10677256 2.00669687 2.05386477 1.50120272 0 1 C0 0.67 0 0.34 0 0 Z M29 26 C26.43171122 32.37014069 23.86876249 38.7424103 21.30957031 45.11621094 C20.43776217 47.28565446 19.56471854 49.4546019 18.69042969 51.62304688 C17.43622293 54.73438972 16.18642494 57.84747138 14.9375 60.9609375 C14.34690796 62.42193375 14.34690796 62.42193375 13.74438477 63.91244507 C13.38401123 64.81322784 13.0236377 65.71401062 12.65234375 66.64208984 C12.33257568 67.43706879 12.01280762 68.23204773 11.68334961 69.05111694 C10.88970483 70.97035452 10.88970483 70.97035452 11 73 C22.88 73 34.76 73 47 73 C46.32446794 69.6223397 45.68693684 66.85352995 44.54125977 63.68457031 C44.2474794 62.86732483 43.95369904 62.05007935 43.65101624 61.20806885 C43.33434494 60.34018738 43.01767365 59.47230591 42.69140625 58.578125 C42.36462387 57.67753357 42.03784149 56.77694214 41.70115662 55.84906006 C41.01127249 53.95222071 40.31942179 52.05609559 39.62573242 50.16064453 C38.56222009 47.24923372 37.51037368 44.33377593 36.45898438 41.41796875 C35.78716721 39.57526224 35.11466496 37.73280531 34.44140625 35.890625 C34.12675919 35.01464661 33.81211212 34.13866821 33.4879303 33.23614502 C33.19099777 32.43150818 32.89406525 31.62687134 32.58813477 30.79785156 C32.3291188 30.0867926 32.07010284 29.37573364 31.80323792 28.64312744 C31.10897117 26.80150828 31.10897117 26.80150828 29 26 Z " fill="#030304" transform="translate(1032,1143)"/>
<path d="M0 0 C3.576484 0.59310918 6.49165022 1.54896745 9.73828125 3.15234375 C10.63272949 3.59376709 11.52717773 4.03519043 12.44873047 4.48999023 C13.39377441 4.96766846 14.33881836 5.44534668 15.3125 5.9375 C16.2936377 6.43258057 17.27477539 6.92766113 18.28564453 7.43774414 C36.26199749 16.6371655 52.88588033 27.93748584 67.625 41.77734375 C69.69963814 43.71890477 71.82171445 45.55244253 74 47.375 C90.08923243 61.47347548 102.42618773 79.57451539 113 98 C113.36963867 98.63615234 113.73927734 99.27230469 114.12011719 99.92773438 C125.7669404 120.12987381 132.88436043 142.41263699 137.75 165.125 C138.04813599 166.49930176 138.04813599 166.49930176 138.35229492 167.90136719 C141.43341593 183.01510434 142.31419175 198.04260144 142.20581055 213.43554688 C142.18727774 216.15764555 142.18530374 218.87940653 142.18554688 221.6015625 C142.18063877 223.36198208 142.17481357 225.12239939 142.16796875 226.8828125 C142.16685593 227.68188019 142.1657431 228.48094788 142.16459656 229.30422974 C142.12293173 234.28158134 141.7033381 239.07137138 141 244 C140.29359375 243.27941406 139.5871875 242.55882812 138.859375 241.81640625 C137.01386061 239.95332173 135.18015364 238.32687478 133.140625 236.65234375 C126.46509422 230.38275741 124.40139376 225.51128505 124.03344727 216.30029297 C123.98797005 211.38808967 124.00363131 206.47767257 124.03662109 201.56542969 C123.58773125 157.86151433 105.07962384 109.60283324 76 77 C75.21496094 76.11828125 74.42992187 75.2365625 73.62109375 74.328125 C72.08381184 72.61609441 70.53991929 70.90996775 68.98828125 69.2109375 C67.4039618 67.44919917 65.90609002 65.66911213 64.4375 63.8125 C61.25575756 60.14125873 57.70293694 57.13279268 54 54 C53.04996094 53.16210938 52.09992188 52.32421875 51.12109375 51.4609375 C45.56438702 46.59142525 39.8926159 42.04986747 33.75 37.9375 C33.13358643 37.51968262 32.51717285 37.10186523 31.88208008 36.67138672 C28.54530686 34.46967217 25.23569175 32.59703423 21.5859375 30.9609375 C11.46118326 26.20926771 7.34398046 21.51648533 3.4375 10.875 C2.19770964 7.2739002 1.04366112 3.66265976 0 0 Z " fill="#030304" transform="translate(1056,91)"/>
<path d="M0 0 C35.31 0 70.62 0 107 0 C107 13.53 107 27.06 107 41 C103.85410448 37.85410448 102.69950081 35.45228317 100.875 31.4375 C96.44367103 22.17352323 90.51048193 14.37482169 81 10 C77.53287889 8.84429296 74.4585044 8.67164707 70.8125 8.4375 C69.54019531 8.35371094 68.26789063 8.26992187 66.95703125 8.18359375 C65.49330078 8.09271484 65.49330078 8.09271484 64 8 C64.06132492 19.84002574 64.1385132 31.67983313 64.23571491 43.51962185 C64.28036079 49.01786763 64.31962973 54.5160403 64.34643555 60.0144043 C64.37252609 65.32487542 64.41296933 70.63506433 64.46318626 75.94536018 C64.47981609 77.96700583 64.49135448 79.98870024 64.49761391 82.01040459 C64.50729728 84.85155398 64.53540704 87.69198765 64.56762695 90.53295898 C64.56619186 91.36086945 64.56475677 92.18877991 64.5632782 93.04177856 C64.66958394 99.70996623 65.58891702 106.40985559 70.26171875 111.4296875 C73.40527201 113.23240991 76.30781476 114.20535823 79.8125 115.125 C81.03839844 115.45242188 82.26429688 115.77984375 83.52734375 116.1171875 C84.67332031 116.40851563 85.81929687 116.69984375 87 117 C87.88816406 117.22945312 88.77632812 117.45890625 89.69140625 117.6953125 C91.45750462 118.14394572 93.22812589 118.57475021 95 119 C95 119.33 95 119.66 95 120 C67.94 120 40.88 120 13 120 C16.87554377 117.41630415 20.90998217 116.64746028 25.375 115.58789062 C29.39777799 114.58219613 32.51725831 113.22262242 36 111 C36.66 111 37.32 111 38 111 C38.309375 110.21625 38.61875 109.4325 38.9375 108.625 C40 106 40 106 41 104 C41.12298959 100.98000001 41.18579555 97.98160625 41.20532227 94.96044922 C41.21522186 94.02381439 41.22512146 93.08717957 41.23532104 92.12216187 C41.26698922 89.01636307 41.29171448 85.91054896 41.31640625 82.8046875 C41.33697119 80.65519811 41.35796753 78.50571281 41.37937927 76.35623169 C41.4346475 70.69109399 41.48403581 65.02591951 41.53222656 59.36071777 C41.58240694 53.58289302 41.63811106 47.80512187 41.69335938 42.02734375 C41.80099904 30.68494159 41.90243109 19.34249295 42 8 C39.26370878 8.12443668 36.52848078 8.25861283 33.79296875 8.3984375 C33.02142456 8.43251709 32.24988037 8.46659668 31.45495605 8.50170898 C23.9938772 8.89744796 19.10910554 10.53948277 13.875 16 C7.67838463 23.88047825 4.15006952 33.58685108 1 43 C0.67 43 0.34 43 0 43 C0 28.81 0 14.62 0 0 Z " fill="#030304" transform="translate(843,1143)"/>
<path d="M0 0 C27.72 0 55.44 0 84 0 C81.7884531 2.2115469 81.04678129 2.37569202 78.078125 2.9296875 C76.91023437 3.16365234 76.91023437 3.16365234 75.71875 3.40234375 C74.0894254 3.71428723 72.45922146 4.02167666 70.828125 4.32421875 C64.72895392 5.55809711 60.40097642 7.26785441 56.1875 12.0625 C53.46659486 16.50187155 53.82765959 21.03254207 53.79467773 26.0612793 C53.78477814 26.98830658 53.77487854 27.91533386 53.76467896 28.87045288 C53.73306064 31.93834875 53.70830514 35.00626011 53.68359375 38.07421875 C53.66302452 40.19985866 53.64202805 42.32549447 53.62062073 44.4511261 C53.56539694 50.04884529 53.51598897 55.64660141 53.46777344 61.24438477 C53.41756069 66.95527437 53.36187344 72.66611026 53.30664062 78.37695312 C53.19905527 89.58458955 53.09761109 100.79227258 53 112 C58.22928022 111.95552159 63.4573901 111.88535331 68.68603516 111.79248047 C70.46067942 111.76444451 72.23544453 111.7431445 74.01025391 111.72900391 C89.44041941 112.17541078 89.44041941 112.17541078 102.62255859 105.36621094 C104 104 104 104 106 104 C106.27199219 103.43023438 106.54398438 102.86046875 106.82421875 102.2734375 C108.0255483 99.95060097 109.39271797 97.82023026 110.8125 95.625 C114.58886078 89.42694348 116.76154993 82.87382455 119 76 C119.33 76 119.66 76 120 76 C120 90.52 120 105.04 120 120 C80.4 120 40.8 120 0 120 C4.17299072 117.21800619 8.72682985 116.63811832 13.57617188 115.67578125 C19.46084321 114.40481624 24.14796992 112.55452424 27.8125 107.5 C30.07267191 102.74174336 30.15326002 98.3558096 30.16113281 93.14550781 C30.16609772 92.35798126 30.17106262 91.57045471 30.17617798 90.75906372 C30.19076656 88.1570752 30.19759664 85.55514768 30.203125 82.953125 C30.20887985 81.1395467 30.21463754 79.32596842 30.22039795 77.51239014 C30.23089901 73.70942909 30.23674731 69.90648913 30.24023438 66.10351562 C30.24571248 61.24362722 30.26972965 56.38401991 30.29820633 51.52421951 C30.31688275 47.77686769 30.322041 44.02958284 30.32357025 40.28218842 C30.3265868 38.49132503 30.33458144 36.70046255 30.34775543 34.90964508 C30.36491842 32.39690633 30.36291078 29.8848448 30.35644531 27.37207031 C30.3656601 26.64035614 30.37487488 25.90864197 30.3843689 25.15475464 C30.33476094 18.96237154 29.14425446 13.27968106 24.7734375 8.6328125 C21.44395521 6.67263842 18.37892734 5.78112039 14.625 4.875 C13.35914063 4.56304688 12.09328125 4.25109375 10.7890625 3.9296875 C9.53867187 3.62289063 8.28828125 3.31609375 7 3 C4.65985768 2.35463701 2.33030547 1.68042511 0 1 C0 0.67 0 0.34 0 0 Z " fill="#030304" transform="translate(524,1143)"/>
<path d="M0 0 C27.72 0 55.44 0 84 0 C81.7884531 2.2115469 81.04678129 2.37569202 78.078125 2.9296875 C76.91023438 3.16365234 76.91023438 3.16365234 75.71875 3.40234375 C74.0894254 3.71428723 72.45922146 4.02167666 70.828125 4.32421875 C64.72895392 5.55809711 60.40097642 7.26785441 56.1875 12.0625 C53.6103023 16.2674015 53.84565715 20.37810839 53.83886719 25.13989258 C53.83390228 25.96949997 53.82893738 26.79910736 53.82382202 27.65385437 C53.80920697 30.40075508 53.80239929 33.14759803 53.796875 35.89453125 C53.79112276 37.80401104 53.78536504 39.71349082 53.77960205 41.62297058 C53.76909377 45.62861398 53.76325005 49.63423733 53.75976562 53.63989258 C53.75428295 58.76791988 53.73025901 63.89568139 53.70179367 69.02362537 C53.68315204 72.96905792 53.67796086 76.91442666 53.67642975 80.85989952 C53.67340586 82.75010315 53.66538624 84.64030572 53.65224457 86.53046608 C53.6351531 89.17782315 53.6370719 91.82453367 53.64355469 94.47192383 C53.62973251 95.63874191 53.62973251 95.63874191 53.6156311 96.82913208 C53.66126928 102.79110431 54.95176621 106.89152404 59.125 111.1875 C66.23469297 115.66969774 74.91689732 117.07154403 83 119 C83 119.33 83 119.66 83 120 C55.28 120 27.56 120 -1 120 C1.99853796 118.50073102 3.78085899 117.6987511 6.8984375 117.0703125 C7.62546875 116.91433594 8.3525 116.75835938 9.1015625 116.59765625 C10.60815342 116.2844303 12.115975 115.97706228 13.625 115.67578125 C19.36365275 114.42868887 23.77145947 112.45907921 27.8125 108 C30.43056991 103.5906191 30.15927233 98.96326239 30.17700195 93.96191406 C30.18357315 93.15488037 30.19014435 92.34784668 30.19691467 91.51635742 C30.21660112 88.84944559 30.22830007 86.18258997 30.23828125 83.515625 C30.24439454 82.14600239 30.24439454 82.14600239 30.25063133 80.74871063 C30.27147253 75.91548389 30.28578252 71.08228536 30.29516602 66.24902344 C30.30622461 61.26798793 30.34062378 56.28739986 30.38033772 51.30652237 C30.40653519 47.46652418 30.41486064 43.62663211 30.41844749 39.78655243 C30.42330557 37.95101653 30.43489728 36.11548513 30.45348549 34.28003693 C30.47794339 31.70488935 30.47690004 29.13089324 30.4699707 26.55566406 C30.48918579 25.43004059 30.48918579 25.43004059 30.50878906 24.28167725 C30.45538515 18.80574265 29.04738545 14.57456619 26 10 C21.40599137 5.92986955 16.61056946 4.96204111 10.75 3.875 C9.13932179 3.56662648 7.52985862 3.25181667 5.921875 2.9296875 C5.21643555 2.79804199 4.51099609 2.66639648 3.78417969 2.53076172 C2 2 2 2 0 0 Z " fill="#030304" transform="translate(1184,1143)"/>
<path d="M0 0 C27.39 0 54.78 0 83 0 C80.72308998 2.27691002 79.68725232 2.47621858 76.60546875 3.1484375 C75.29545898 3.45007812 75.29545898 3.45007812 73.95898438 3.7578125 C72.12414406 4.16641683 70.28820831 4.57013539 68.45117188 4.96875 C61.47952627 6.57259128 61.47952627 6.57259128 56 11 C53.50153196 16.64944616 52.56045988 21.17366103 52.61181641 27.30859375 C52.60393097 28.49075974 52.60393097 28.49075974 52.59588623 29.69680786 C52.58278533 32.27724592 52.59138874 34.85705671 52.6015625 37.4375 C52.59953891 39.24536252 52.5966251 41.05322424 52.59286499 42.86108398 C52.58845506 46.64021619 52.59482967 50.4191349 52.60888672 54.19824219 C52.6259778 59.02667742 52.61612947 63.85461227 52.59816933 68.68302917 C52.58729543 72.41324591 52.59079433 76.14334528 52.5985527 79.87356567 C52.60054475 81.65324972 52.59813065 83.43294464 52.59111404 85.21261597 C52.58343989 87.70583058 52.59518623 90.19825038 52.61181641 92.69140625 C52.60574371 93.41683624 52.59967102 94.14226624 52.59341431 94.88967896 C52.66832049 100.99408683 53.88737402 106.63129815 58.0625 111.3125 C62.19003297 113.68363596 66.41421418 114.80202786 71 116 C73.04180134 116.56201097 75.08347088 117.12450099 77.125 117.6875 C78.74965187 118.12629102 80.37452358 118.56427343 82 119 C82 119.33 82 119.66 82 120 C54.61 120 27.22 120 -1 120 C3.15344604 117.23103597 7.66469026 116.6438667 12.48828125 115.67578125 C17.67114074 114.55145723 21.65561687 113.10158696 26 110 C29.15750113 105.08183858 29.43200114 101.07398456 29.38818359 95.42773438 C29.39344055 94.58793533 29.39869751 93.74813629 29.40411377 92.88288879 C29.41726776 90.11965075 29.40859207 87.35699344 29.3984375 84.59375 C29.40045956 82.66613658 29.4033721 80.7385239 29.40713501 78.81091309 C29.41155213 74.77604877 29.40514698 70.74138404 29.39111328 66.70654297 C29.37402182 61.54156354 29.38386627 56.37705182 29.40183067 51.21208954 C29.41268501 47.23317966 29.40921458 43.25438017 29.4014473 39.27546692 C29.39944986 37.37132207 29.40188851 35.4671671 29.40888596 33.56303406 C29.41652758 30.89917552 29.40485842 28.23606839 29.38818359 25.57226562 C29.39425629 24.7897493 29.40032898 24.00723297 29.40658569 23.20100403 C29.33821021 17.28762387 28.06387657 13.08201257 23.77734375 8.7578125 C20.4319364 6.64046608 17.40815043 5.79671682 13.5625 4.875 C8.96140477 3.75142276 4.47299384 2.5624368 0 1 C0 0.67 0 0.34 0 0 Z " fill="#030304" transform="translate(702,1143)"/>
<path d="M0 0 C6 0 6 0 8.38671875 2.1328125 C9.52560547 3.61394531 9.52560547 3.61394531 10.6875 5.125 C11.10612305 5.65834961 11.52474609 6.19169922 11.95605469 6.74121094 C12.85203937 7.88619062 13.74000261 9.03748434 14.62060547 10.19433594 C16.01893405 12.02478518 17.44404484 13.83089352 18.87890625 15.6328125 C23.68684539 21.68014596 28.40420059 27.78946026 33 34 C36.98985309 32.67004897 38.55560779 30.04997127 41 26.8125 C41.98027801 25.53891567 42.96075263 24.26548264 43.94140625 22.9921875 C44.44430176 22.33444336 44.94719727 21.67669922 45.46533203 20.99902344 C47.92868454 17.79031674 50.434101 14.61498956 52.9375 11.4375 C53.82161947 10.31120176 54.70573429 9.18489986 55.58984375 8.05859375 C56.38519531 7.04925781 57.18054687 6.03992187 58 5 C58.96099609 3.56333984 58.96099609 3.56333984 59.94140625 2.09765625 C60.62074219 1.40542969 61.30007813 0.71320313 62 0 C63.98 0 65.96 0 68 0 C68 23.76 68 47.52 68 72 C63.71 72 59.42 72 55 72 C54.67 58.47 54.34 44.94 54 31 C51.958125 33.495625 49.91625 35.99125 47.8125 38.5625 C47.17932861 39.33408447 46.54615723 40.10566895 45.89379883 40.90063477 C42.42201989 45.1593575 39.14427263 49.49380138 36 54 C31.42182034 53.16440175 29.49580997 50.48970917 26.6875 47 C26.01557617 46.18982422 26.01557617 46.18982422 25.33007812 45.36328125 C21.44980976 40.65427099 17.7473498 35.81802118 14 31 C13.67 44.53 13.34 58.06 13 72 C8.71 72 4.42 72 0 72 C0 48.24 0 24.48 0 0 Z " fill="#030304" transform="translate(1339,1396)"/>
<path d="M0 0 C8.76458787 7.58744614 13.50332806 15.09881968 14.5 26.72265625 C14.96754997 38.08645142 13.41916754 47.62823088 5.80078125 56.44140625 C-2.54700297 64.92492679 -10.47678574 68.05339563 -22.32421875 68.31640625 C-33.31755178 68.04019185 -41.51888414 65.3430516 -49.82421875 57.94140625 C-52.26525865 55.12521706 -54.11234904 52.24650124 -55.82421875 48.94140625 C-56.16324219 48.30074219 -56.50226562 47.66007812 -56.8515625 47 C-60.72069118 37.88882601 -60.28062203 24.99391468 -57.13671875 15.75390625 C-56.41827609 14.12560196 -55.65167066 12.517115 -54.82421875 10.94140625 C-54.48519531 10.29042969 -54.14617188 9.63945313 -53.796875 8.96875 C-49.23507755 1.58220964 -40.9543928 -3.53482554 -32.6484375 -5.62109375 C-21.26044735 -7.38520841 -9.56761638 -6.97390572 0 0 Z M-42.4140625 15.74609375 C-46.7814178 22.54513441 -46.51535121 30.14648188 -45.82421875 37.94140625 C-44.19789876 44.67067039 -40.63079183 49.24415972 -34.82421875 52.94140625 C-28.49992158 56.34878268 -22.23761603 57.01767951 -15.27734375 55.3203125 C-8.84789428 53.12845472 -4.44488389 49.72212729 -0.82421875 43.94140625 C2.33307387 36.26007353 2.70657417 26.80886856 -0.32421875 19.00390625 C-3.3106622 13.32754565 -7.98099144 9.39461132 -13.63671875 6.50390625 C-25.64708552 4.38442976 -34.37670669 6.35967821 -42.4140625 15.74609375 Z " fill="#030304" transform="translate(866.82421875,1401.05859375)"/>
<path d="M0 0 C6 0 6 0 8.52734375 1.90625 C9.32269531 2.7621875 10.11804687 3.618125 10.9375 4.5 C11.80503906 5.42167969 12.67257812 6.34335938 13.56640625 7.29296875 C16.08069193 10.08975844 18.58468244 12.88984153 21.03125 15.74609375 C23.58978981 18.67521571 26.23061401 21.52346152 28.875 24.375 C32.62211249 28.42143632 36.36080838 32.47433487 40.0625 36.5625 C40.75472656 37.32691406 41.44695312 38.09132813 42.16015625 38.87890625 C43.8645279 40.84381879 45.43933506 42.91911342 47 45 C47 30.15 47 15.3 47 0 C51.29 0 55.58 0 60 0 C60 23.76 60 47.52 60 72 C55 72 55 72 52.7890625 70.3125 C51.71785156 69.1678125 51.71785156 69.1678125 50.625 68 C49.83996094 67.16984375 49.05492187 66.3396875 48.24609375 65.484375 C45.80234694 62.78137853 43.3844997 60.06235397 41.01171875 57.296875 C38.39719805 54.31175234 35.69958247 51.40810365 33 48.5 C28.58245973 43.73495926 24.24976902 38.91639946 20 34 C17.69 31.36 15.38 28.72 13 26 C13 41.18 13 56.36 13 72 C8.71 72 4.42 72 0 72 C0 48.24 0 24.48 0 0 Z " fill="#030304" transform="translate(1247,1396)"/>
<path d="M0 0 C5.89875 -0.0825 11.7975 -0.165 17.875 -0.25 C20.63593018 -0.30462402 20.63593018 -0.30462402 23.45263672 -0.36035156 C41.67089547 -0.57214515 41.67089547 -0.57214515 48.88378906 5.61621094 C53.78989241 10.57782017 55.64621409 16.69799815 56.375 23.5 C55.52995043 31.38712928 53.00845162 37.65607759 47 43 C45.35474136 44.03484384 43.69142891 45.04247923 42 46 C42.64066406 46.82242187 43.28132813 47.64484375 43.94140625 48.4921875 C48.07423311 53.81634453 52.18495772 59.15586533 56.125 64.625 C56.68445313 65.40101562 57.24390625 66.17703125 57.8203125 66.9765625 C59 69 59 69 59 72 C54.25826634 73.21564686 49.58334573 74.04032078 45 72 C39.43673018 66.70482211 35.86965835 59.5563528 32 53 C30.30869025 49.93452915 30.30869025 49.93452915 28 48 C25.18479262 47.45792283 23.054861 47.21261906 20.25 47.1875 C17.8575 47.125625 15.465 47.06375 13 47 C13 55.25 13 63.5 13 72 C8.71 72 4.42 72 0 72 C0 48.24 0 24.48 0 0 Z M13 11 C13 19.58 13 28.16 13 37 C17.4859375 37.0928125 17.4859375 37.0928125 22.0625 37.1875 C22.99070557 37.21481201 23.91891113 37.24212402 24.87524414 37.27026367 C30.37458249 37.32491037 34.15204645 36.64888184 39 34 C41.93035973 30.76909056 43.24242992 28.24529758 43.4375 23.9375 C42.88814137 18.99327231 41.7219606 16.50671553 38 13.25 C34.73021813 11.20638633 32.09513046 10.87837497 28.33203125 10.90234375 C27.1251062 10.90609009 27.1251062 10.90609009 25.89379883 10.90991211 C24.87697021 10.91901611 23.8601416 10.92812012 22.8125 10.9375 C19.574375 10.958125 16.33625 10.97875 13 11 Z " fill="#030304" transform="translate(180,1396)"/>
<path d="M0 0 C41.96005639 0 41.96005639 0 51.98828125 9.578125 C60.4406983 19.75385038 61.70001015 30.29611212 61 43 C59.3433132 53.3893918 53.81148955 61.01171187 45.734375 67.4921875 C31.27734695 75.46420583 16.65141952 72 0 72 C0 48.24 0 24.48 0 0 Z M12 12 C12 27.84 12 43.68 12 60 C28.8696685 61.4343761 28.8696685 61.4343761 42.0234375 54.03515625 C42.46945312 53.38417969 42.91546875 52.73320313 43.375 52.0625 C44.06722656 51.08990234 44.06722656 51.08990234 44.7734375 50.09765625 C48.74932784 43.29812404 48.80054829 36.72739774 48 29 C45.8653262 21.56339221 41.68438536 16.78968291 35 13 C27.71989011 10.5732967 19.67390962 12 12 12 Z " fill="#030304" transform="translate(1853,1396)"/>
<path d="M0 0 C5.919375 -0.0825 11.83875 -0.165 17.9375 -0.25 C19.78722412 -0.28641602 21.63694824 -0.32283203 23.54272461 -0.36035156 C33.0595667 -0.47144237 40.73859366 -0.41817595 48.33984375 5.96484375 C48.86707031 6.61582031 49.39429688 7.26679687 49.9375 7.9375 C50.48277344 8.58589844 51.02804687 9.23429687 51.58984375 9.90234375 C55.82402306 16.20083209 55.68797362 22.63778884 55 30 C53.19946941 37.25045874 47.61808451 41.48632527 42 46 C43.54042678 48.16755705 45.0823982 50.33399171 46.625 52.5 C47.0792334 53.1398584 47.5334668 53.7797168 48.00146484 54.43896484 C50.89919595 58.5069137 53.87330824 62.48619404 57.0390625 66.3515625 C58 68 58 68 58 72 C53.34093769 73.0821048 49.63137698 73.30565415 45 72 C40.52301499 68.19047884 37.4298142 63.00629942 34.328125 58.06982422 C33.01046613 56.016311 31.6052563 54.06002187 30.15625 52.09765625 C28 49 28 49 28 47 C23.05 47 18.1 47 13 47 C13 55.25 13 63.5 13 72 C8.71 72 4.42 72 0 72 C0 48.24 0 24.48 0 0 Z M13 11 C13 19.58 13 28.16 13 37 C15.825625 37.061875 18.65125 37.12375 21.5625 37.1875 C22.43849854 37.21481201 23.31449707 37.24212402 24.21704102 37.27026367 C30.67721472 37.33811191 35.52714136 36.34270818 40.375 31.75 C42.43382984 28.26582642 43 26.06241921 43 22 C41.7174506 17.67438307 40.25759987 14.86521301 36.49609375 12.27734375 C31.77767703 10.55340826 27.5970359 10.67526501 22.625 10.8125 C19.44875 10.874375 16.2725 10.93625 13 11 Z " fill="#030304" transform="translate(504,1396)"/>
<path d="M0 0 C41.76923077 0 41.76923077 0 49.4375 7.25 C53.62448841 12.82474378 55.63364945 18.6428944 55.34375 25.63671875 C54.26897889 33.02577015 51.49861598 38.3842545 45.5859375 42.94140625 C44 44 44 44 42 45 C43.76234603 48.9801298 46.3261927 52.3750343 48.875 55.875 C58 68.46587537 58 68.46587537 58 72 C46.99593716 73.50970374 46.99593716 73.50970374 42.70703125 70.265625 C40.16144346 67.05346061 37.99988213 63.69939188 35.92236328 60.16845703 C31.22086343 51.64890073 31.22086343 51.64890073 23.25 46.88671875 C18.95927037 46.51526672 18.95927037 46.51526672 13 47 C13 55.25 13 63.5 13 72 C8.71 72 4.42 72 0 72 C0 48.24 0 24.48 0 0 Z M12 11 C12 19.58 12 28.16 12 37 C16.4859375 37.0928125 16.4859375 37.0928125 21.0625 37.1875 C21.99070557 37.21481201 22.91891113 37.24212402 23.87524414 37.27026367 C29.3753737 37.32491823 33.14940195 36.644076 38 34 C41.09462699 30.66732478 42.27683436 27.96540504 42.5625 23.5 C42.33460433 18.49473595 40.61901748 16.37226629 37 13 C33.91029247 11.09346394 31.6225753 10.7607003 28.015625 10.8046875 C27.17290039 10.80968262 26.33017578 10.81467773 25.46191406 10.81982422 C24.40198242 10.83803223 23.34205078 10.85624023 22.25 10.875 C18.8675 10.91625 15.485 10.9575 12 11 Z " fill="#030304" transform="translate(9,1396)"/>
<path d="M0 0 C4.29 0 8.58 0 13 0 C13 9.24 13 18.48 13 28 C23.23 28 33.46 28 44 28 C44 18.76 44 9.52 44 0 C48.29 0 52.58 0 57 0 C57 23.76 57 47.52 57 72 C52.71 72 48.42 72 44 72 C44 61.44 44 50.88 44 40 C33.77 40 23.54 40 13 40 C13 50.56 13 61.12 13 72 C8.71 72 4.42 72 0 72 C0 48.24 0 24.48 0 0 Z " fill="#030304" transform="translate(1689,1396)"/>
<path d="M0 0 C1.18577637 0.01027222 1.18577637 0.01027222 2.39550781 0.02075195 C8.33537748 0.18438641 13.06455845 1.05000628 18.0625 4.4375 C18.64257812 4.79972656 19.22265625 5.16195313 19.8203125 5.53515625 C24.1241388 8.60189238 25.92686254 12.42674874 27.0625 17.4375 C27.0625 18.7575 27.0625 20.0775 27.0625 21.4375 C22.7725 21.4375 18.4825 21.4375 14.0625 21.4375 C13.4025 19.7875 12.7425 18.1375 12.0625 16.4375 C7.7876797 12.69703224 2.53836874 12.44605604 -2.9375 12.4375 C-7.14803193 13.11661805 -9.23597082 13.82366197 -12.4375 16.625 C-14.20367462 19.43997064 -14.20367462 19.43997064 -14.0625 23.0625 C-13.27990171 26.56310829 -13.27990171 26.56310829 -10.546875 28.02734375 C-4.92289861 30.22458994 0.88349211 30.9154563 6.83203125 31.81054688 C14.18726668 33.01624047 20.9039355 34.67951525 26 40.4375 C29.80340268 45.96972208 29.68056477 51.88419556 29.0625 58.4375 C27.47021564 64.73132668 23.82995797 67.82486757 18.4765625 71.2109375 C9.31352061 75.86659309 -2.19849224 75.87689972 -12.15625 73.75 C-18.09181174 71.5516438 -23.9498137 68.11471966 -27.03125 62.4140625 C-28.476867 58.81340533 -28.9375 56.39528216 -28.9375 52.4375 C-24.6475 52.4375 -20.3575 52.4375 -15.9375 52.4375 C-15.545625 53.365625 -15.15375 54.29375 -14.75 55.25 C-12.51820198 59.17488618 -10.34696418 60.72708066 -6.04296875 61.99609375 C0.88261692 63.44802544 6.72655645 62.43873642 13.0625 59.4375 C15.54288907 55.7169164 15.52587203 53.83953429 15.0625 49.4375 C12.03797013 45.13336134 7.98389336 43.95019486 2.92431641 43.06225586 C-0.30457065 42.59560464 -3.53570778 42.15867427 -6.7734375 41.7578125 C-13.55384755 40.80160083 -19.38684091 38.98815909 -24.3125 34.0625 C-27.82166441 28.39384979 -28.85756176 23.04691833 -27.54296875 16.4609375 C-25.7716299 10.54123733 -22.10263922 6.72289451 -16.9375 3.4375 C-11.32454592 0.69603331 -6.20253272 -0.08265635 0 0 Z " fill="#030304" transform="translate(1020.9375,1394.5625)"/>
<path d="M0 0 C6.54576056 4.58924535 11.19831805 9.48639841 14 17 C14 18.32 14 19.64 14 21 C9.90181785 21.47745811 6.08090958 21.69328194 2 21 C-0.00548225 19.18859668 -1.12854432 17.34665989 -2.53125 15.046875 C-5.17562194 11.36163325 -8.70466214 10.08734182 -13 9 C-20.96888247 7.77670664 -27.43290047 9.2939738 -34 14 C-39.25817362 19.19645796 -41.02278137 25.54088949 -41.375 32.8125 C-41.21623053 39.75601821 -38.98632389 45.60622506 -34.5625 50.9375 C-27.68153831 56.47583502 -21.73168396 57.87188621 -13 57 C-8.57718191 55.95267668 -5.05982487 54.67325611 -2.5625 50.73046875 C-2.129375 49.91191406 -1.69625 49.09335938 -1.25 48.25 C0.1171875 45.86328125 0.1171875 45.86328125 2 44 C6.42397446 43.20962567 10.55427086 43.46572098 15 44 C12.96174335 52.72516883 9.87015382 59.6088695 2.3125 64.8125 C-8.10893034 70.67703114 -19.29789354 71.51469544 -30.6875 68.375 C-40.49663038 65.05105298 -47.14716634 59.28426365 -52 50.109375 C-56.38741475 40.40643854 -56.5715183 28.30266743 -53.03125 18.3046875 C-49.0054777 9.30769639 -43.08620665 2.63735622 -33.953125 -1.3203125 C-22.34823762 -5.29040555 -11.13311844 -5.59656763 0 0 Z " fill="#030304" transform="translate(1647,1399)"/>
<path d="M0 0 C5.23686112 4.44595688 8.75966396 8.56355904 11.1640625 15.01171875 C11.1640625 16.33171875 11.1640625 17.65171875 11.1640625 19.01171875 C7.06454403 19.48933255 3.24590939 19.7068348 -0.8359375 19.01171875 C-2.97304624 17.18173941 -4.1589688 15.38921666 -5.60546875 12.98828125 C-7.57330131 9.82725498 -10.17217264 8.50587113 -13.6640625 7.46875 C-21.29723014 5.8624899 -27.87041359 6.62836798 -34.671875 10.4609375 C-40.13360831 14.37485108 -42.61404936 19.45795508 -43.8359375 26.01171875 C-44.66504889 33.5630102 -43.09986151 39.22180383 -39.8359375 46.01171875 C-39.32546875 47.11193359 -39.32546875 47.11193359 -38.8046875 48.234375 C-37.4869163 50.65206006 -36.39958904 50.99975104 -33.8359375 52.01171875 C-32.6396875 52.54796875 -31.4434375 53.08421875 -30.2109375 53.63671875 C-23.65082127 56.01004466 -17.4342773 55.93906537 -10.9609375 53.32421875 C-5.64764473 50.67225781 -3.46360804 47.26705983 -0.8359375 42.01171875 C3.4540625 42.01171875 7.7440625 42.01171875 12.1640625 42.01171875 C10.61415799 50.53619355 7.10929617 57.22251731 -0.0234375 62.38671875 C-9.26490597 67.95946355 -19.58475406 69.46889437 -30.1015625 67.35546875 C-40.50492733 64.54897963 -47.98054198 59.66762027 -53.6171875 50.3828125 C-58.89306944 40.11851655 -59.26987905 29.33047052 -56.2734375 18.26171875 C-52.92485132 8.55550218 -47.05369405 1.61322282 -37.8359375 -2.98828125 C-25.39687242 -7.92649656 -11.20899303 -7.85864663 0 0 Z " fill="#030304" transform="translate(715.8359375,1400.98828125)"/>
<path d="M0 0 C5.919375 -0.0825 11.83875 -0.165 17.9375 -0.25 C19.78722412 -0.28641602 21.63694824 -0.32283203 23.54272461 -0.36035156 C33.43916498 -0.47434659 41.09385616 -0.26621203 48.875 6.5 C49.57625 7.325 50.2775 8.15 51 9 C51.556875 9.639375 52.11375 10.27875 52.6875 10.9375 C56.80175536 17.40275843 56.69210747 24.6086472 56 32 C54.51070392 38.26823985 51.2413094 42.27858225 46.48828125 46.4921875 C39.10159774 50.96826259 31.90260471 51.40425886 23.4375 51.1875 C18.2709375 51.0946875 18.2709375 51.0946875 13 51 C13 57.93 13 64.86 13 72 C8.71 72 4.42 72 0 72 C0 48.24 0 24.48 0 0 Z M13 11 C13 20.24 13 29.48 13 39 C18.2284375 39.185625 18.2284375 39.185625 23.5625 39.375 C24.64732666 39.42962402 25.73215332 39.48424805 26.84985352 39.54052734 C31.86615189 39.62635491 35.17755565 39.44608449 39.12109375 36.15625 C42.48450084 32.84969356 43.91451121 29.83822785 44.05859375 25.0546875 C43.73495699 19.5633025 41.95196554 16.77233074 38 13 C33.18621826 10.25456764 28.05448144 10.77714298 22.6875 10.875 C19.490625 10.91625 16.29375 10.9575 13 11 Z " fill="#030304" transform="translate(422,1396)"/>
<path d="M0 0 C2.31 0 4.62 0 7 0 C13.34937938 13.32573351 19.68429299 26.6582721 26 40 C26.36695984 40.77494812 26.73391968 41.54989624 27.11199951 42.34832764 C29.29301764 46.95673698 31.46248383 51.57037943 33.625 56.1875 C34.16213623 57.32413086 34.69927246 58.46076172 35.25268555 59.63183594 C35.73906494 60.67500977 36.22544434 61.71818359 36.7265625 62.79296875 C37.14502441 63.6852417 37.56348633 64.57751465 37.99462891 65.49682617 C39 68 39 68 40 73 C35.38 73 30.76 73 26 73 C23.69 68.38 21.38 63.76 19 59 C8.77 59 -1.46 59 -12 59 C-14.31 63.62 -16.62 68.24 -19 73 C-23.62 73 -28.24 73 -33 73 C-32.0902189 68.4510945 -30.69933041 64.87508009 -28.7109375 60.76171875 C-28.3752626 60.05559952 -28.03958771 59.34948029 -27.69374084 58.6219635 C-26.59251921 56.30804218 -25.4837221 53.99783546 -24.375 51.6875 C-23.61142541 50.08591463 -22.84849298 48.48402296 -22.08618164 46.88183594 C-20.91034731 44.41069277 -19.73412107 41.93974538 -18.55586243 39.46975708 C-14.47593634 30.91542179 -10.45353659 22.33446621 -6.4375 13.75 C-5.78246028 12.35112237 -5.1273516 10.95227703 -4.47216797 9.5534668 C-2.98083011 6.36926563 -1.49017882 3.18474379 0 0 Z M3 21 C1.16370918 25.1445297 -0.66853742 29.29083471 -2.5 33.4375 C-3.02464844 34.62150391 -3.54929687 35.80550781 -4.08984375 37.02539062 C-4.58613281 38.15009766 -5.08242187 39.27480469 -5.59375 40.43359375 C-6.05458984 41.47572021 -6.51542969 42.51784668 -6.99023438 43.59155273 C-8.06444205 45.71844429 -8.06444205 45.71844429 -8 47 C-0.41 47 7.18 47 15 47 C13.38099615 43.03911604 11.7551233 39.08130476 10.125 35.125 C9.66480469 33.99707031 9.20460938 32.86914062 8.73046875 31.70703125 C8.28574219 30.63066406 7.84101562 29.55429688 7.3828125 28.4453125 C6.77010498 26.95281982 6.77010498 26.95281982 6.14501953 25.43017578 C5.1156722 22.89015658 5.1156722 22.89015658 3 21 Z " fill="#030304" transform="translate(1463,1395)"/>
<path d="M0 0 C1.4540625 0.0309375 1.4540625 0.0309375 2.9375 0.0625 C10.15048203 14.29234068 17.0845436 28.65627084 23.9375 43.0625 C24.22699524 43.67071594 24.51649048 44.27893188 24.8147583 44.90557861 C26.80788866 49.09688254 28.78278454 53.2964521 30.75 57.5 C31.27174805 58.60134277 31.79349609 59.70268555 32.33105469 60.83740234 C33.04310059 62.37001709 33.04310059 62.37001709 33.76953125 63.93359375 C34.18952393 64.83005615 34.6095166 65.72651855 35.04223633 66.65014648 C35.9375 69.0625 35.9375 69.0625 35.9375 73.0625 C31.6475 73.0625 27.3575 73.0625 22.9375 73.0625 C21.76573482 70.94017021 20.59995215 68.81492209 19.4375 66.6875 C19.10363281 66.08421875 18.76976562 65.4809375 18.42578125 64.859375 C15.9375 60.2890625 15.9375 60.2890625 15.9375 58.0625 C5.3775 58.0625 -5.1825 58.0625 -16.0625 58.0625 C-16.7225 60.0425 -17.3825 62.0225 -18.0625 64.0625 C-19.33259074 67.09403046 -20.70206262 70.06953777 -22.0625 73.0625 C-26.6825 73.0625 -31.3025 73.0625 -36.0625 73.0625 C-34.93758458 66.31300746 -34.93758458 66.31300746 -33.39526367 63.12207031 C-33.05328445 62.40476242 -32.71130524 61.68745453 -32.35896301 60.94841003 C-31.98655991 60.18684097 -31.6141568 59.42527191 -31.23046875 58.640625 C-30.84215378 57.83059525 -30.45383881 57.02056549 -30.05375671 56.18598938 C-28.79256695 53.55819599 -27.52127824 50.93542534 -26.25 48.3125 C-24.51389843 44.70327487 -22.78265111 41.0917259 -21.05078125 37.48046875 C-20.62192627 36.58823105 -20.19307129 35.69599335 -19.7512207 34.77671814 C-15.54741734 26.02052025 -11.47840073 17.20603388 -7.45385742 8.36621094 C-7.01275635 7.40102539 -6.57165527 6.43583984 -6.1171875 5.44140625 C-5.74062012 4.6119751 -5.36405273 3.78254395 -4.97607422 2.92797852 C-3.51490761 -0.05565967 -3.56719183 0.07279983 0 0 Z M-1.0625 22.0625 C-2.73507264 25.85158876 -4.39955115 29.64417885 -6.0625 33.4375 C-6.53945312 34.51773437 -7.01640625 35.59796875 -7.5078125 36.7109375 C-7.95898438 37.7421875 -8.41015625 38.7734375 -8.875 39.8359375 C-9.29394531 40.78903809 -9.71289062 41.74213867 -10.14453125 42.72412109 C-11.18430594 44.95409667 -11.18430594 44.95409667 -11.0625 47.0625 C-3.8025 47.0625 3.4575 47.0625 10.9375 47.0625 C8.73027659 40.24921095 8.73027659 40.24921095 6.11328125 33.68359375 C5.80712891 32.99072266 5.50097656 32.29785156 5.18554688 31.58398438 C4.87681641 30.89626953 4.56808594 30.20855469 4.25 29.5 C3.92966797 28.77748047 3.60933594 28.05496094 3.27929688 27.31054688 C2.50237057 25.55956371 1.72047505 23.81078676 0.9375 22.0625 C0.2775 22.0625 -0.3825 22.0625 -1.0625 22.0625 Z " fill="#030304" transform="translate(121.0625,1394.9375)"/>
<path d="M0 0 C14.85 0 29.7 0 45 0 C45 3.63 45 7.26 45 11 C34.44 11 23.88 11 13 11 C13 16.94 13 22.88 13 29 C22.9 29 32.8 29 43 29 C43 32.96 43 36.92 43 41 C33.1 41 23.2 41 13 41 C13 47.27 13 53.54 13 60 C23.56 60 34.12 60 45 60 C45 63.96 45 67.92 45 72 C30.15 72 15.3 72 0 72 C0 48.24 0 24.48 0 0 Z " fill="#030304" transform="translate(1778,1396)"/>
<path d="M0 0 C14.85 0 29.7 0 45 0 C45 3.63 45 7.26 45 11 C34.44 11 23.88 11 13 11 C13 16.94 13 22.88 13 29 C22.9 29 32.8 29 43 29 C43 32.96 43 36.92 43 41 C33.1 41 23.2 41 13 41 C13 47.27 13 53.54 13 60 C23.56 60 34.12 60 45 60 C45 63.96 45 67.92 45 72 C30.15 72 15.3 72 0 72 C0 48.24 0 24.48 0 0 Z " fill="#030304" transform="translate(265,1396)"/>
<path d="M0 0 C3.96 0 7.92 0 12 0 C12.01458252 1.44769775 12.02916504 2.89539551 12.04418945 4.38696289 C12.10230627 9.77506805 12.17953901 15.16276116 12.26245117 20.55053711 C12.29563748 22.87924495 12.32368888 25.20803202 12.34643555 27.53686523 C12.38009669 30.89080457 12.43241999 34.24402206 12.48828125 37.59765625 C12.49467117 38.63334244 12.5010611 39.66902863 12.50764465 40.73609924 C12.62542555 46.57028363 13.1349719 50.87093004 16 56 C20.12332777 59.5610558 23.55814464 60.90776516 29 61 C33.34186317 60.16842282 36.72375127 59.1084035 40.09399414 56.18139648 C43.02964503 51.28137512 42.60329244 46.5295548 42.609375 40.91796875 C42.62591125 39.74865311 42.64244751 38.57933746 42.65948486 37.37458801 C42.70800976 33.64550547 42.72934687 29.91683091 42.75 26.1875 C42.77815575 23.65688047 42.80808261 21.12627998 42.83984375 18.59570312 C42.91377067 12.39716898 42.96331847 6.19886194 43 0 C47.29 0 51.58 0 56 0 C56.0743563 7.54392357 56.12870056 15.08763208 56.16479492 22.63183594 C56.17984779 25.19632688 56.20029461 27.76079223 56.22631836 30.32519531 C56.26285467 34.01894463 56.27976194 37.71235246 56.29296875 41.40625 C56.30845261 42.5461438 56.32393646 43.6860376 56.33988953 44.86047363 C56.34144792 52.29170941 55.87016356 58.42094062 51.0546875 64.42578125 C42.58790744 71.75455324 35.70997986 73.63387488 24.50390625 73.34375 C16.36996529 72.5457714 10.13644551 69.95837999 4.4375 64.07421875 C-0.46843135 56.99527977 -0.40439259 50.68252776 -0.29296875 42.28515625 C-0.28872391 41.07427841 -0.28447906 39.86340057 -0.28010559 38.61582947 C-0.26336989 34.76448943 -0.22572572 30.91368077 -0.1875 27.0625 C-0.17244662 24.44466904 -0.15875936 21.82682984 -0.14648438 19.20898438 C-0.11348287 12.80578616 -0.06173457 6.40298305 0 0 Z " fill="#030304" transform="translate(1160,1396)"/>
<path d="M0 0 C3.96 0 7.92 0 12 0 C12.01458252 1.48322754 12.02916504 2.96645508 12.04418945 4.49462891 C12.10224449 10.00756712 12.17947779 15.52009999 12.26245117 21.03271484 C12.29566646 23.41676241 12.32370892 25.80088797 12.34643555 28.18505859 C12.38004318 31.61589739 12.43236407 35.04602363 12.48828125 38.4765625 C12.49467117 39.53928375 12.5010611 40.602005 12.50764465 41.69692993 C12.63458756 48.11382791 13.33573695 52.59152939 17.3984375 57.7890625 C21.33292903 60.76392195 26.73817784 61.30204457 31.515625 60.6640625 C35.9909909 59.40443965 38.5407241 58.07192964 41.14004517 54.027771 C43.00584693 49.62821586 42.60415201 44.74270697 42.609375 40.0390625 C42.62591125 38.89335785 42.64244751 37.7476532 42.65948486 36.56723022 C42.70794148 32.91976548 42.72933168 29.27271764 42.75 25.625 C42.77816147 23.14711447 42.80808913 20.66924834 42.83984375 18.19140625 C42.91370055 12.12763848 42.96329006 6.06410184 43 0 C47.29 0 51.58 0 56 0 C56.09922689 7.5255961 56.17163956 15.05080733 56.21972656 22.5769043 C56.23978303 25.13458901 56.26703505 27.69222821 56.30175781 30.24975586 C56.35053672 33.93614975 56.37302945 37.62193484 56.390625 41.30859375 C56.41127014 42.44332626 56.43191528 43.57805878 56.45318604 44.74717712 C56.45541356 52.71312909 55.19170357 58.96765502 50.17578125 65.3046875 C42.14670512 72.07133027 34.97294047 73.59296676 24.51171875 73.35546875 C17.47240747 72.64292445 9.83149805 70.39990958 5 65 C0.03906339 57.41962047 -0.68790795 50.8992385 -0.48828125 41.9921875 C-0.48120651 40.7855545 -0.47413177 39.57892151 -0.46684265 38.33572388 C-0.43904954 34.51482854 -0.37633469 30.6954459 -0.3125 26.875 C-0.28739785 24.27085463 -0.26458807 21.66668608 -0.24414062 19.0625 C-0.18927156 12.70775825 -0.10310004 6.35413482 0 0 Z " fill="#030304" transform="translate(909,1396)"/>
<path d="M0 0 C14.52 0 29.04 0 44 0 C44 3.63 44 7.26 44 11 C33.77 11 23.54 11 13 11 C13 16.94 13 22.88 13 29 C22.57 29 32.14 29 42 29 C42 32.96 42 36.92 42 41 C32.43 41 22.86 41 13 41 C13 47.27 13 53.54 13 60 C23.56 60 34.12 60 45 60 C45 63.96 45 67.92 45 72 C30.15 72 15.3 72 0 72 C0 48.24 0 24.48 0 0 Z " fill="#030304" transform="translate(589,1396)"/>
<path d="M0 0 C17.82 0 35.64 0 54 0 C54 3.63 54 7.26 54 11 C47.07 11 40.14 11 33 11 C33 31.13 33 51.26 33 72 C29.04 72 25.08 72 21 72 C21 51.87 21 31.74 21 11 C14.07 11 7.14 11 0 11 C0 7.37 0 3.74 0 0 Z " fill="#030304" transform="translate(1519,1396)"/>
<path d="M0 0 C11.22 0 22.44 0 34 0 C34 3.3 34 6.6 34 10 C30.37 10 26.74 10 23 10 C23 27.16 23 44.32 23 62 C26.96 62 30.92 62 35 62 C35 65.3 35 68.6 35 72 C23.12 72 11.24 72 -1 72 C-1 68.7 -1 65.4 -1 62 C2.96 62 6.92 62 11 62 C11 44.84 11 27.68 11 10 C7.37 10 3.74 10 0 10 C0 6.7 0 3.4 0 0 Z " fill="#030304" transform="translate(751,1396)"/>
<path d="M0 0 C4.20921004 0.11522797 4.20921004 0.11522797 6.6875 1.9375 C7.93908877 5.42406873 7.48231952 7.82712472 6.5625 11.375 C2.77972246 13.89685169 0.00453329 14.10456472 -4.4375 13.375 C-6.5 11.8125 -6.5 11.8125 -7.4375 9.375 C-7.12253822 3.28573897 -6.47012938 0.10624186 0 0 Z " fill="#030304" transform="translate(1945.4375,1455.625)"/>
<path d="M0 0 C4.20921004 0.11522797 4.20921004 0.11522797 6.6875 1.9375 C7.92807904 5.39339875 7.41182967 7.84701523 6.5625 11.375 C4.5625 13.375 4.5625 13.375 0.6875 13.75 C-2.30302865 13.65739711 -3.36433828 13.4196108 -6 11.8125 C-7.4375 9.375 -7.4375 9.375 -7.3125 5.75 C-6.06278948 0.92968799 -4.76033395 0.0781664 0 0 Z " fill="#030304" transform="translate(1082.4375,1455.625)"/>
<path d="M0 0 C4.20921004 0.11522797 4.20921004 0.11522797 6.6875 1.9375 C7.92807904 5.39339875 7.41182967 7.84701523 6.5625 11.375 C4.5625 13.375 4.5625 13.375 0.6875 13.75 C-2.30302865 13.65739711 -3.36433828 13.4196108 -6 11.8125 C-7.4375 9.375 -7.4375 9.375 -7.3125 5.75 C-6.06278948 0.92968799 -4.76033395 0.0781664 0 0 Z " fill="#030304" transform="translate(344.4375,1455.625)"/>
</svg>
