<svg width="20" height="20" viewBox="0 0 20 20" fill="none" xmlns="http://www.w3.org/2000/svg">
<path d="M11.6669 14.1646H4.16797" stroke="#6C5022" stroke-width="1.66644" stroke-linecap="round" stroke-linejoin="round"/>
<path d="M15.831 5.83252H8.33203" stroke="#6C5022" stroke-width="1.66644" stroke-linecap="round" stroke-linejoin="round"/>
<path d="M14.1637 16.6644C15.5442 16.6644 16.6634 15.5452 16.6634 14.1647C16.6634 12.7842 15.5442 11.665 14.1637 11.665C12.7832 11.665 11.6641 12.7842 11.6641 14.1647C11.6641 15.5452 12.7832 16.6644 14.1637 16.6644Z" stroke="#6C5022" stroke-width="1.66644" stroke-linecap="round" stroke-linejoin="round"/>
<path d="M5.83169 8.33232C7.21221 8.33232 8.33135 7.21319 8.33135 5.83267C8.33135 4.45214 7.21221 3.33301 5.83169 3.33301C4.45117 3.33301 3.33203 4.45214 3.33203 5.83267C3.33203 7.21319 4.45117 8.33232 5.83169 8.33232Z" stroke="#6C5022" stroke-width="1.66644" stroke-linecap="round" stroke-linejoin="round"/>
</svg>
