<svg width="24" height="24" viewBox="0 0 24 24" fill="none" xmlns="http://www.w3.org/2000/svg">
<g clip-path="url(#clip0_698_4875)">
<path d="M16.4999 12.2773C16.3163 12.2773 16.1392 12.2403 15.9687 12.1664C15.7983 12.0931 15.6489 11.9793 15.5206 11.8252L9.58632 4.70338C9.48815 4.58885 9.41426 4.46351 9.36465 4.32734C9.31504 4.19117 9.2905 4.04604 9.29102 3.89192C9.29102 3.79323 9.30343 3.69665 9.32823 3.60217C9.35357 3.50717 9.38893 3.41191 9.43432 3.31638L10.8427 0.474299C10.9572 0.260549 11.1163 0.0898134 11.3201 -0.0379088C11.5238 -0.165631 11.7468 -0.229492 11.989 -0.229492L21.0109 -0.229492C21.2536 -0.229492 21.4766 -0.165631 21.6798 -0.0379088C21.883 0.0898134 22.0421 0.260286 22.1572 0.473508L23.5656 3.31559C23.6115 3.41165 23.6468 3.50717 23.6716 3.60217C23.6965 3.69717 23.7089 3.79376 23.7089 3.89192C23.7089 4.04604 23.6841 4.19117 23.6344 4.32734C23.5848 4.46351 23.5109 4.58885 23.4128 4.70338L17.4792 11.8252C17.351 11.9793 17.2016 12.0933 17.0311 12.1672C16.8607 12.2406 16.6836 12.2773 16.4999 12.2773ZM13.9801 3.72884H19.0198L17.4365 0.562174L15.5634 0.562174L13.9801 3.72884ZM16.1041 11.2972V4.52051H10.4769L16.1041 11.2972ZM16.8958 11.2972L22.5229 4.52051H16.8958V11.2972ZM19.8978 3.72884L22.8792 3.72884L21.432 0.836091C21.3914 0.754813 21.3304 0.688841 21.2492 0.638175C21.1679 0.587508 21.0816 0.562174 20.9903 0.562174L18.3144 0.562174L19.8978 3.72884ZM10.1207 3.72884L13.1021 3.72884L14.6854 0.562174L12.0088 0.562174C11.9175 0.562174 11.8312 0.587508 11.7499 0.638175C11.6687 0.688841 11.608 0.754813 11.5679 0.836091L10.1207 3.72884Z" fill="#6C5022"/>
<path fill-rule="evenodd" clip-rule="evenodd" d="M18.0126 20.01C18.3256 19.6973 18.5739 19.3259 18.7434 18.9172C18.9128 18.5084 19 18.0703 19 17.6278C19 17.1853 18.9128 16.7472 18.7434 16.3385C18.5739 15.9297 18.3256 15.5583 18.0126 15.2456L14.2969 11.53L14.0875 12.1752C14.0052 12.4168 13.8715 12.6057 13.7186 12.7702L15.194 14.2457L12.247 17.1928L4.0394 8.98518C3.72159 8.66684 3.49481 8.26921 3.38263 7.8336L2.53566 4.53437L5.83488 5.38135C6.27058 5.49317 6.66772 5.71937 6.98647 6.03811L9.22794 8.27958C9.39036 8.11695 9.58709 7.99268 9.80373 7.91585L10.4643 7.69993L7.89513 5.13073C7.41391 4.6498 6.81252 4.30672 6.15363 4.13723L1.80307 3.02035C1.69483 2.99244 1.58119 2.99325 1.47337 3.02269C1.36554 3.05213 1.26726 3.10918 1.18822 3.18822C1.10918 3.26726 1.05213 3.36554 1.02269 3.47337C0.993252 3.58119 0.992445 3.69483 1.02035 3.80307L2.13723 8.15363C2.3056 8.81296 2.64876 9.41317 3.12944 9.89513L13.2469 20.0126C13.5596 20.3256 13.931 20.5739 14.3397 20.7434C14.7485 20.9128 15.1866 21 15.6291 21C16.0716 21 16.5097 20.9128 16.9185 20.7434C17.3272 20.5739 17.6986 20.3256 18.0113 20.0126L18.0126 20.01ZM14.1569 19.1014L13.1556 18.1001L16.1027 15.1531L17.1039 16.1543C17.4773 16.5486 17.682 17.0731 17.6746 17.616C17.6672 18.159 17.4482 18.6777 17.0642 19.0617C16.6803 19.4457 16.1616 19.6647 15.6186 19.6721C15.0756 19.6795 14.5512 19.4747 14.1569 19.1014Z" fill="#6C5022"/>
</g>
<defs>
<clipPath id="clip0_698_4875">
<rect width="24" height="24" fill="white" transform="matrix(0 1 -1 0 24 0)"/>
</clipPath>
</defs>
</svg>
