<svg width="28" height="29" viewBox="0 0 28 29" fill="none" xmlns="http://www.w3.org/2000/svg">
<path d="M19.8288 21.7493C18.5338 21.7493 17.4954 22.8248 17.4954 24.166C17.4954 24.807 17.7413 25.4216 18.1789 25.8749C18.6164 26.3281 19.2099 26.5827 19.8288 26.5827C20.4476 26.5827 21.0411 26.3281 21.4787 25.8749C21.9163 25.4216 22.1621 24.807 22.1621 24.166C22.1621 23.5251 21.9163 22.9104 21.4787 22.4572C21.0411 22.004 20.4476 21.7493 19.8288 21.7493ZM1.16211 2.41602V4.83268H3.49544L7.69544 14.0039L6.10878 16.9643C5.93378 17.3027 5.82878 17.7014 5.82878 18.1243C5.82878 18.7653 6.07461 19.38 6.51219 19.8332C6.94978 20.2864 7.54327 20.541 8.16211 20.541H22.1621V18.1243H8.65211C8.57475 18.1243 8.50057 18.0925 8.44587 18.0359C8.39117 17.9792 8.36044 17.9024 8.36044 17.8223C8.36044 17.7618 8.37211 17.7135 8.39544 17.6773L9.44544 15.7077H18.1371C19.0121 15.7077 19.7821 15.2002 20.1788 14.4631L24.3554 6.64518C24.4371 6.45185 24.4954 6.24643 24.4954 6.04102C24.4954 5.72055 24.3725 5.4132 24.1537 5.18659C23.9349 4.95999 23.6382 4.83268 23.3288 4.83268H6.07378L4.97711 2.41602M8.16211 21.7493C6.86711 21.7493 5.82878 22.8248 5.82878 24.166C5.82878 24.807 6.07461 25.4216 6.51219 25.8749C6.94978 26.3281 7.54327 26.5827 8.16211 26.5827C8.78095 26.5827 9.37444 26.3281 9.81202 25.8749C10.2496 25.4216 10.4954 24.807 10.4954 24.166C10.4954 23.5251 10.2496 22.9104 9.81202 22.4572C9.37444 22.004 8.78095 21.7493 8.16211 21.7493Z" fill="#90DCD0"/>
</svg>
