<svg width="36" height="36" viewBox="0 0 36 36" fill="none" xmlns="http://www.w3.org/2000/svg">
<path d="M0 10C0 4.47715 4.47715 0 10 0H25.9786C31.5015 0 35.9786 4.47715 35.9786 10V25.9786C35.9786 31.5015 31.5015 35.9786 25.9786 35.9786H10C4.47715 35.9786 0 31.5015 0 25.9786V10Z" fill="white" fill-opacity="0.5"/>
<g clip-path="url(#clip0_1086_2214)">
<path d="M10.2412 16.5727C10.0545 16.7592 9.90644 16.9806 9.8054 17.2244C9.70435 17.4682 9.65234 17.7294 9.65234 17.9933C9.65234 18.2572 9.70435 18.5185 9.8054 18.7622C9.90644 19.006 10.0545 19.2275 10.2412 19.414L16.5654 25.7381C16.7518 25.9248 16.9733 26.0729 17.2171 26.1739C17.4608 26.275 17.7221 26.327 17.986 26.327C18.2499 26.327 18.5112 26.275 18.7549 26.1739C18.9987 26.0729 19.2201 25.9248 19.4066 25.7381L25.7308 19.414C25.9174 19.2275 26.0655 19.006 26.1666 18.7622C26.2676 18.5185 26.3196 18.2572 26.3196 17.9933C26.3196 17.7294 26.2676 17.4682 26.1666 17.2244C26.0655 16.9806 25.9174 16.7592 25.7308 16.5727L19.4066 10.2485C19.2201 10.0619 18.9987 9.91376 18.7549 9.81272C18.5112 9.71168 18.2499 9.65967 17.986 9.65967C17.7221 9.65967 17.4608 9.71168 17.2171 9.81272C16.9733 9.91376 16.7518 10.0619 16.5654 10.2485L10.2412 16.5727Z" stroke="#232323" stroke-width="1.39148" stroke-linecap="round" stroke-linejoin="round"/>
</g>
<defs>
<clipPath id="clip0_1086_2214">
<rect width="19.9973" height="19.9973" fill="white" transform="translate(7.99023 7.99072)"/>
</clipPath>
</defs>
</svg>
