<svg width="36" height="36" viewBox="0 0 36 36" fill="none" xmlns="http://www.w3.org/2000/svg">
<path d="M0 10C0 4.47715 4.47715 0 10 0H25.9786C31.5015 0 35.9786 4.47715 35.9786 10V25.9786C35.9786 31.5015 31.5015 35.9786 25.9786 35.9786H10C4.47715 35.9786 0 31.5015 0 25.9786V10Z" fill="white" fill-opacity="0.5"/>
<g clip-path="url(#clip0_1086_2201)">
<path d="M17.9883 13.8232V25.4883" stroke="#232323" stroke-width="1.39148" stroke-linecap="round" stroke-linejoin="round"/>
<path d="M10.4895 22.9885C10.2685 22.9885 10.0566 22.9007 9.90029 22.7445C9.74404 22.5882 9.65625 22.3763 9.65625 22.1553V11.3235C9.65625 11.1025 9.74404 10.8905 9.90029 10.7343C10.0566 10.578 10.2685 10.4902 10.4895 10.4902H14.6556C15.5395 10.4902 16.3872 10.8414 17.0123 11.4664C17.6373 12.0914 17.9884 12.9392 17.9884 13.8231C17.9884 12.9392 18.3396 12.0914 18.9646 11.4664C19.5897 10.8414 20.4374 10.4902 21.3213 10.4902H25.4874C25.7084 10.4902 25.9203 10.578 26.0766 10.7343C26.2328 10.8905 26.3206 11.1025 26.3206 11.3235V22.1553C26.3206 22.3763 26.2328 22.5882 26.0766 22.7445C25.9203 22.9007 25.7084 22.9885 25.4874 22.9885H20.4881C19.8251 22.9885 19.1894 23.2519 18.7206 23.7207C18.2518 24.1894 17.9884 24.8252 17.9884 25.4882C17.9884 24.8252 17.7251 24.1894 17.2563 23.7207C16.7875 23.2519 16.1517 22.9885 15.4888 22.9885H10.4895Z" stroke="#232323" stroke-width="1.39148" stroke-linecap="round" stroke-linejoin="round"/>
</g>
<defs>
<clipPath id="clip0_1086_2201">
<rect width="19.9973" height="19.9973" fill="white" transform="translate(7.99023 7.99072)"/>
</clipPath>
</defs>
</svg>
