<svg width="36" height="36" viewBox="0 0 36 36" fill="none" xmlns="http://www.w3.org/2000/svg">
<path d="M0 10C0 4.47715 4.47715 0 10 0H25.9786C31.5015 0 35.9786 4.47715 35.9786 10V25.9786C35.9786 31.5015 31.5015 35.9786 25.9786 35.9786H10C4.47715 35.9786 0 31.5015 0 25.9786V10Z" fill="white" fill-opacity="0.5"/>
<path d="M23.8213 25.4881V23.8216C23.8213 22.9377 23.4702 22.09 22.8451 21.4649C22.2201 20.8399 21.3724 20.4888 20.4884 20.4888H15.4891C14.6052 20.4888 13.7575 20.8399 13.1324 21.4649C12.5074 22.09 12.1562 22.9377 12.1562 23.8216V25.4881" stroke="#232323" stroke-width="1.39148" stroke-linecap="round" stroke-linejoin="round"/>
<path d="M17.9891 17.1565C19.8298 17.1565 21.322 15.6643 21.322 13.8236C21.322 11.9829 19.8298 10.4907 17.9891 10.4907C16.1484 10.4907 14.6562 11.9829 14.6562 13.8236C14.6562 15.6643 16.1484 17.1565 17.9891 17.1565Z" stroke="#232323" stroke-width="1.39148" stroke-linecap="round" stroke-linejoin="round"/>
</svg>
