<svg width="36" height="36" viewBox="0 0 36 36" fill="none" xmlns="http://www.w3.org/2000/svg">
<path d="M0 10C0 4.47715 4.47715 0 10 0H25.9786C31.5015 0 35.9786 4.47715 35.9786 10V25.9786C35.9786 31.5015 31.5015 35.9786 25.9786 35.9786H10C4.47715 35.9786 0 31.5015 0 25.9786V10Z" fill="white" fill-opacity="0.5"/>
<g clip-path="url(#clip0_1086_2208)">
<path d="M17.5922 9.90294C17.6287 9.82917 17.6851 9.76707 17.7551 9.72365C17.825 9.68023 17.9057 9.65723 17.988 9.65723C18.0703 9.65723 18.151 9.68023 18.2209 9.72365C18.2908 9.76707 18.3473 9.82917 18.3838 9.90294L20.3085 13.8016C20.4353 14.0582 20.6225 14.2802 20.8539 14.4485C21.0854 14.6169 21.3543 14.7265 21.6375 14.7681L25.9419 15.398C26.0235 15.4098 26.1001 15.4442 26.1631 15.4973C26.2261 15.5504 26.273 15.6201 26.2985 15.6985C26.324 15.7769 26.3271 15.8608 26.3073 15.9408C26.2876 16.0208 26.2459 16.0937 26.1869 16.1512L23.074 19.1825C22.8687 19.3826 22.7151 19.6295 22.6264 19.9021C22.5377 20.1747 22.5166 20.4647 22.5649 20.7473L23.2998 25.03C23.3142 25.1116 23.3054 25.1955 23.2743 25.2722C23.2433 25.349 23.1914 25.4155 23.1244 25.4641C23.0574 25.5128 22.9781 25.5416 22.8955 25.5474C22.813 25.5531 22.7304 25.5355 22.6573 25.4966L18.8095 23.4736C18.556 23.3405 18.2739 23.2709 17.9876 23.2709C17.7012 23.2709 17.4191 23.3405 17.1656 23.4736L13.3186 25.4966C13.2456 25.5353 13.1631 25.5527 13.0807 25.5468C12.9983 25.541 12.9191 25.5121 12.8523 25.4635C12.7854 25.4149 12.7336 25.3485 12.7026 25.2718C12.6716 25.1952 12.6628 25.1114 12.677 25.03L13.4111 20.7481C13.4596 20.4654 13.4386 20.1752 13.3499 19.9024C13.2612 19.6297 13.1075 19.3826 12.902 19.1825L9.78911 16.1521C9.72961 16.0946 9.68745 16.0216 9.66743 15.9413C9.64741 15.8611 9.65033 15.7768 9.67586 15.6981C9.70139 15.6195 9.74851 15.5495 9.81184 15.4963C9.87517 15.4431 9.95218 15.4088 10.0341 15.3972L14.3377 14.7681C14.6212 14.7269 14.8904 14.6173 15.1222 14.449C15.354 14.2806 15.5414 14.0584 15.6683 13.8016L17.5922 9.90294Z" stroke="#232323" stroke-width="1.39148" stroke-linecap="round" stroke-linejoin="round"/>
</g>
<defs>
<clipPath id="clip0_1086_2208">
<rect width="19.9973" height="19.9973" fill="white" transform="translate(7.99023 7.99072)"/>
</clipPath>
</defs>
</svg>
