<svg width="20" height="20" viewBox="0 0 20 20" fill="none" xmlns="http://www.w3.org/2000/svg">
<g clip-path="url(#clip0_1086_2221)">
<path d="M9.17919 2.34479C9.2149 2.15365 9.31632 1.98102 9.4659 1.85679C9.61549 1.73255 9.80381 1.66455 9.99825 1.66455C10.1927 1.66455 10.381 1.73255 10.5306 1.85679C10.6802 1.98102 10.7816 2.15365 10.8173 2.34479L11.693 6.97582C11.7552 7.30506 11.9152 7.60791 12.1521 7.84484C12.3891 8.08177 12.6919 8.24177 13.0212 8.30397L17.6522 9.17968C17.8433 9.21538 18.016 9.31681 18.1402 9.46639C18.2644 9.61597 18.3324 9.80429 18.3324 9.99874C18.3324 10.1932 18.2644 10.3815 18.1402 10.5311C18.016 10.6807 17.8433 10.7821 17.6522 10.8178L13.0212 11.6935C12.6919 11.7557 12.3891 11.9157 12.1521 12.1526C11.9152 12.3896 11.7552 12.6924 11.693 13.0217L10.8173 17.6527C10.7816 17.8438 10.6802 18.0165 10.5306 18.1407C10.381 18.2649 10.1927 18.3329 9.99825 18.3329C9.80381 18.3329 9.61549 18.2649 9.4659 18.1407C9.31632 18.0165 9.2149 17.8438 9.17919 17.6527L8.30348 13.0217C8.24129 12.6924 8.08128 12.3896 7.84435 12.1526C7.60742 11.9157 7.30457 11.7557 6.97533 11.6935L2.3443 10.8178C2.15316 10.7821 1.98053 10.6807 1.8563 10.5311C1.73207 10.3815 1.66406 10.1932 1.66406 9.99874C1.66406 9.80429 1.73207 9.61597 1.8563 9.46639C1.98053 9.31681 2.15316 9.21538 2.3443 9.17968L6.97533 8.30397C7.30457 8.24177 7.60742 8.08177 7.84435 7.84484C8.08128 7.60791 8.24129 7.30506 8.30348 6.97582L9.17919 2.34479Z" stroke="#232323" stroke-width="1.39148" stroke-linecap="round" stroke-linejoin="round"/>
<path d="M16.6641 1.6665V4.99938" stroke="#232323" stroke-width="1.39148" stroke-linecap="round" stroke-linejoin="round"/>
<path d="M18.3309 3.33301H14.998" stroke="#232323" stroke-width="1.39148" stroke-linecap="round" stroke-linejoin="round"/>
<path d="M3.33245 18.3309C4.2528 18.3309 4.99889 17.5848 4.99889 16.6645C4.99889 15.7441 4.2528 14.998 3.33245 14.998C2.41211 14.998 1.66602 15.7441 1.66602 16.6645C1.66602 17.5848 2.41211 18.3309 3.33245 18.3309Z" stroke="#232323" stroke-width="1.39148" stroke-linecap="round" stroke-linejoin="round"/>
</g>
<defs>
<clipPath id="clip0_1086_2221">
<rect width="19.9973" height="19.9973" fill="white"/>
</clipPath>
</defs>
</svg>
