<svg width="36" height="36" viewBox="0 0 36 36" fill="none" xmlns="http://www.w3.org/2000/svg">
<path d="M0 10C0 4.47715 4.47715 0 10 0H25.9786C31.5015 0 35.9786 4.47715 35.9786 10V25.9786C35.9786 31.5015 31.5015 35.9786 25.9786 35.9786H10C4.47715 35.9786 0 31.5015 0 25.9786V10Z" fill="white" fill-opacity="0.5"/>
<g clip-path="url(#clip0_1086_2279)">
<path d="M14.6574 26.3212C15.1176 26.3212 15.4907 25.9482 15.4907 25.488C15.4907 25.0278 15.1176 24.6548 14.6574 24.6548C14.1973 24.6548 13.8242 25.0278 13.8242 25.488C13.8242 25.9482 14.1973 26.3212 14.6574 26.3212Z" stroke="#232323" stroke-width="1.39148" stroke-linecap="round" stroke-linejoin="round"/>
<path d="M23.8215 26.3212C24.2817 26.3212 24.6547 25.9482 24.6547 25.488C24.6547 25.0278 24.2817 24.6548 23.8215 24.6548C23.3613 24.6548 22.9883 25.0278 22.9883 25.488C22.9883 25.9482 23.3613 26.3212 23.8215 26.3212Z" stroke="#232323" stroke-width="1.39148" stroke-linecap="round" stroke-linejoin="round"/>
<path d="M9.69922 9.69873H11.3657L13.582 20.0473C13.6633 20.4263 13.8742 20.7651 14.1784 21.0054C14.4825 21.2457 14.8609 21.3724 15.2485 21.3638H23.3973C23.7766 21.3632 24.1443 21.2332 24.4397 20.9954C24.7351 20.7575 24.9406 20.426 25.0221 20.0556L26.3969 13.8648H12.2572" stroke="#232323" stroke-width="1.39148" stroke-linecap="round" stroke-linejoin="round"/>
</g>
<defs>
<clipPath id="clip0_1086_2279">
<rect width="19.9973" height="19.9973" fill="white" transform="translate(7.99023 7.99072)"/>
</clipPath>
</defs>
</svg>
