<svg width="36" height="36" viewBox="0 0 36 36" fill="none" xmlns="http://www.w3.org/2000/svg">
<path d="M0 10C0 4.47715 4.47715 0 10 0H25.9786C31.5015 0 35.9786 4.47715 35.9786 10V25.9786C35.9786 31.5015 31.5015 35.9786 25.9786 35.9786H10C4.47715 35.9786 0 31.5015 0 25.9786V10Z" fill="white" fill-opacity="0.5"/>
<path d="M20.4876 25.4882V18.8225C20.4876 18.6015 20.3998 18.3896 20.2436 18.2333C20.0873 18.077 19.8754 17.9893 19.6544 17.9893H16.3215C16.1005 17.9893 15.8886 18.077 15.7323 18.2333C15.5761 18.3896 15.4883 18.6015 15.4883 18.8225V25.4882" stroke="#232323" stroke-width="1.39148" stroke-linecap="round" stroke-linejoin="round"/>
<path d="M10.4902 16.3229C10.4902 16.0805 10.543 15.841 10.645 15.6211C10.7471 15.4012 10.8958 15.2062 11.081 15.0497L16.9135 10.0504C17.2143 9.79621 17.5954 9.65674 17.9892 9.65674C18.383 9.65674 18.7641 9.79621 19.0649 10.0504L24.8974 15.0497C25.0826 15.2062 25.2313 15.4012 25.3334 15.6211C25.4354 15.841 25.4882 16.0805 25.4882 16.3229V23.8219C25.4882 24.2638 25.3126 24.6877 25.0001 25.0002C24.6876 25.3127 24.2637 25.4883 23.8217 25.4883H12.1567C11.7147 25.4883 11.2908 25.3127 10.9783 25.0002C10.6658 24.6877 10.4902 24.2638 10.4902 23.8219V16.3229Z" stroke="#232323" stroke-width="1.39148" stroke-linecap="round" stroke-linejoin="round"/>
</svg>
