<svg width="31" height="33" viewBox="0 0 31 33" fill="none" xmlns="http://www.w3.org/2000/svg">
<g clip-path="url(#clip0_92_317)">
<path d="M9.625 28.875H7.425C6.54979 28.875 5.71042 28.5273 5.09155 27.9085C4.47268 27.2896 4.125 26.4502 4.125 25.575V23.375M23.375 28.875H25.575C26.4502 28.875 27.2896 28.5273 27.9085 27.9085C28.5273 27.2896 28.875 26.4502 28.875 25.575V23.375M28.875 9.625V7.425C28.875 6.54979 28.5273 5.71042 27.9085 5.09155C27.2896 4.47268 26.4502 4.125 25.575 4.125H23.375M9.625 4.125H7.425C6.99164 4.125 6.56252 4.21036 6.16215 4.3762C5.76177 4.54204 5.39798 4.78511 5.09155 5.09155C4.78511 5.39798 4.54204 5.76177 4.3762 6.16214C4.21036 6.56252 4.125 6.99164 4.125 7.425V9.625M1.375 16.5H31.625" stroke="#6C5022" stroke-width="1.5" stroke-miterlimit="10" stroke-linecap="round" stroke-linejoin="round"/>
</g>
<defs>
<clipPath id="clip0_92_317">
<rect width="33" height="33" fill="white"/>
</clipPath>
</defs>
</svg>
