<svg width="52" height="54" viewBox="0 0 52 54" fill="none" xmlns="http://www.w3.org/2000/svg">
<g filter="url(#filter0_d_340_6743)">
<rect x="2" y="3" width="44" height="46" rx="20" fill="white" shape-rendering="crispEdges"/>
<rect x="2.5" y="3.5" width="43" height="45" rx="19.5" stroke="#90DCD0" shape-rendering="crispEdges"/>
<g clip-path="url(#clip0_340_6743)">
<path d="M28.4999 26.2773C28.3163 26.2773 28.1392 26.2403 27.9687 26.1664C27.7983 26.0931 27.6489 25.9793 27.5206 25.8252L21.5863 18.7034C21.4881 18.5889 21.4143 18.4635 21.3646 18.3273C21.315 18.1912 21.2905 18.046 21.291 17.8919C21.291 17.7932 21.3034 17.6966 21.3282 17.6022C21.3536 17.5072 21.3889 17.4119 21.4343 17.3164L22.8427 14.4743C22.9572 14.2605 23.1163 14.0898 23.3201 13.9621C23.5238 13.8344 23.7468 13.7705 23.989 13.7705H33.0109C33.2536 13.7705 33.4766 13.8344 33.6798 13.9621C33.883 14.0898 34.0421 14.2603 34.1572 14.4735L35.5656 17.3156C35.6115 17.4116 35.6468 17.5072 35.6716 17.6022C35.6965 17.6972 35.7089 17.7938 35.7089 17.8919C35.7089 18.046 35.6841 18.1912 35.6344 18.3273C35.5848 18.4635 35.5109 18.5889 35.4128 18.7034L29.4792 25.8252C29.351 25.9793 29.2016 26.0933 29.0311 26.1672C28.8607 26.2406 28.6836 26.2773 28.4999 26.2773ZM25.9801 17.7288H31.0198L29.4365 14.5622H27.5634L25.9801 17.7288ZM28.1041 25.2972V18.5205H22.4769L28.1041 25.2972ZM28.8958 25.2972L34.5229 18.5205H28.8958V25.2972ZM31.8978 17.7288H34.8792L33.432 14.8361C33.3914 14.7548 33.3304 14.6888 33.2492 14.6382C33.1679 14.5875 33.0816 14.5622 32.9903 14.5622H30.3144L31.8978 17.7288ZM22.1207 17.7288H25.1021L26.6854 14.5622H24.0088C23.9175 14.5622 23.8312 14.5875 23.7499 14.6382C23.6687 14.6888 23.608 14.7548 23.5679 14.8361L22.1207 17.7288Z" fill="#90DCD0"/>
<path fill-rule="evenodd" clip-rule="evenodd" d="M30.0126 34.01C30.3256 33.6973 30.5739 33.3259 30.7434 32.9172C30.9128 32.5084 31 32.0703 31 31.6278C31 31.1853 30.9128 30.7472 30.7434 30.3385C30.5739 29.9297 30.3256 29.5583 30.0126 29.2456L26.2969 25.53L26.0875 26.1752C26.0052 26.4168 25.8715 26.6057 25.7186 26.7702L27.194 28.2457L24.247 31.1928L16.0394 22.9852C15.7216 22.6668 15.4948 22.2692 15.3826 21.8336L14.5357 18.5344L17.8349 19.3813C18.2706 19.4932 18.6677 19.7194 18.9865 20.0381L21.2279 22.2796C21.3904 22.1169 21.5871 21.9927 21.8037 21.9159L22.4643 21.6999L19.8951 19.1307C19.4139 18.6498 18.8125 18.3067 18.1536 18.1372L13.8031 17.0204C13.6948 16.9924 13.5812 16.9933 13.4734 17.0227C13.3655 17.0521 13.2673 17.1092 13.1882 17.1882C13.1092 17.2673 13.0521 17.3655 13.0227 17.4734C12.9933 17.5812 12.9924 17.6948 13.0204 17.8031L14.1372 22.1536C14.3056 22.813 14.6488 23.4132 15.1294 23.8951L25.2469 34.0126C25.5596 34.3256 25.931 34.5739 26.3397 34.7434C26.7485 34.9128 27.1866 35 27.6291 35C28.0716 35 28.5097 34.9128 28.9185 34.7434C29.3272 34.5739 29.6986 34.3256 30.0113 34.0126L30.0126 34.01ZM26.1569 33.1014L25.1556 32.1001L28.1027 29.1531L29.1039 30.1543C29.4773 30.5486 29.682 31.0731 29.6746 31.616C29.6672 32.159 29.4482 32.6777 29.0642 33.0617C28.6803 33.4457 28.1616 33.6647 27.6186 33.6721C27.0756 33.6795 26.5512 33.4747 26.1569 33.1014Z" fill="#90DCD0"/>
</g>
</g>
<defs>
<filter id="filter0_d_340_6743" x="0" y="0" width="52" height="54" filterUnits="userSpaceOnUse" color-interpolation-filters="sRGB">
<feFlood flood-opacity="0" result="BackgroundImageFix"/>
<feColorMatrix in="SourceAlpha" type="matrix" values="0 0 0 0 0 0 0 0 0 0 0 0 0 0 0 0 0 0 127 0" result="hardAlpha"/>
<feOffset dx="2" dy="1"/>
<feGaussianBlur stdDeviation="2"/>
<feComposite in2="hardAlpha" operator="out"/>
<feColorMatrix type="matrix" values="0 0 0 0 0.903846 0 0 0 0 0.903846 0 0 0 0 0.903846 0 0 0 1 0"/>
<feBlend mode="normal" in2="BackgroundImageFix" result="effect1_dropShadow_340_6743"/>
<feBlend mode="normal" in="SourceGraphic" in2="effect1_dropShadow_340_6743" result="shape"/>
</filter>
<clipPath id="clip0_340_6743">
<rect width="24" height="24" fill="white" transform="matrix(0 1 -1 0 36 14)"/>
</clipPath>
</defs>
</svg>
